# 3ds Max Wavefront OBJ Exporter v0.97b - (c)2007 guruware
# File Created: 24.10.2016 23:27:15

#
# object wall
#

v  -0.2500 0.0000 1.5000
v  -0.2500 0.0000 -1.5000
v  0.2500 0.0000 -1.5000
v  0.2500 0.0000 1.5000
v  -0.2000 4.0000 1.5000
v  0.2000 4.0000 1.5000
v  0.2000 4.0000 -1.5000
v  -0.2000 4.0000 -1.5000
v  0.2500 1.5500 1.5000
v  -0.2500 1.5500 1.5000
v  0.4000 0.0000 -1.5000
v  0.3500 1.4000 -1.5000
v  0.3500 1.4000 1.5000
v  0.4000 0.0000 1.5000
v  -0.2500 1.5500 -1.5000
v  0.2500 1.5500 -1.5000
v  -0.4000 0.0000 1.5000
v  -0.3500 1.4000 1.5000
v  -0.3500 1.4000 -1.5000
v  -0.4000 0.0000 -1.5000
v  0.2500 3.9500 1.5000
v  -0.2500 3.9500 1.5000
v  0.2500 3.9500 -1.5000
v  -0.2500 3.9500 -1.5000
# 24 vertices

vn 0.0000 -1.0000 -0.0000
vn 0.0000 1.0000 -0.0000
vn 0.0000 0.0000 1.0000
vn 0.9994 0.0357 -0.0000
vn 0.0000 0.0000 -1.0000
vn -0.9994 0.0357 -0.0000
vn 1.0000 0.0000 -0.0000
vn -1.0000 0.0000 -0.0000
vn 0.8321 0.5547 -0.0000
vn -0.8321 0.5547 -0.0000
vn 0.7071 0.7071 -0.0000
vn -0.7071 0.7071 -0.0000
# 12 vertex normals

vt 0.3693 0.8622 0.0000
vt 0.0100 0.8622 0.0000
vt 0.0100 0.8024 0.0000
vt 0.3693 0.8024 0.0000
vt 0.5110 0.1876 0.0000
vt 0.5110 0.1397 0.0000
vt 0.8702 0.1397 0.0000
vt 0.8702 0.1876 0.0000
vt 0.5110 0.0280 0.0000
vt 0.6966 0.0280 0.0000
vt 0.6966 0.0878 0.0000
vt 0.5110 0.0878 0.0000
vt 0.0100 0.3972 0.0000
vt 0.1777 0.3972 0.0000
vt 0.1777 0.7565 0.0000
vt 0.0100 0.7565 0.0000
vt 0.5110 0.4152 0.0000
vt 0.6966 0.4152 0.0000
vt 0.6966 0.4750 0.0000
vt 0.5110 0.4750 0.0000
vt 0.0100 0.0100 0.0000
vt 0.1777 0.0100 0.0000
vt 0.1777 0.3693 0.0000
vt 0.0100 0.3693 0.0000
vt 0.9840 0.0280 0.0000
vt 0.9900 0.0340 0.0000
vt 0.9900 0.0819 0.0000
vt 0.9840 0.0878 0.0000
vt 0.4830 0.3972 0.0000
vt 0.4830 0.7565 0.0000
vt 0.1956 0.7565 0.0000
vt 0.1956 0.3972 0.0000
vt 0.9840 0.4152 0.0000
vt 0.9900 0.4212 0.0000
vt 0.9900 0.4691 0.0000
vt 0.9840 0.4750 0.0000
vt 0.4830 0.0100 0.0000
vt 0.4830 0.3693 0.0000
vt 0.1956 0.3693 0.0000
vt 0.1956 0.0100 0.0000
vt 0.0100 0.7844 0.0000
vt 0.3693 0.7844 0.0000
vt 0.6786 0.4870 0.0000
vt 0.5110 0.4930 0.0000
vt 0.5110 0.0100 0.0000
vt 0.6786 0.0160 0.0000
vt 0.3693 0.8802 0.0000
vt 0.0100 0.8802 0.0000
vt 0.6786 0.0998 0.0000
vt 0.5110 0.1058 0.0000
vt 0.5110 0.3972 0.0000
vt 0.6786 0.4032 0.0000
vt 0.5110 0.1337 0.0000
vt 0.8702 0.1337 0.0000
vt 0.8702 0.1936 0.0000
vt 0.5110 0.1936 0.0000
# 56 texture coords

g wall
s 1
f 1/1/1 2/2/1 3/3/1 4/4/1 
f 5/5/2 6/6/2 7/7/2 8/8/2 
s 2
f 4/9/3 9/10/3 10/11/3 1/12/3 
s 4
f 11/13/4 12/14/4 13/15/4 14/16/4 
s 2
f 2/17/5 15/18/5 16/19/5 3/20/5 
s 4
f 17/21/6 18/22/6 19/23/6 20/24/6 
s 2
f 9/10/3 21/25/3 6/26/3 10/11/3 
f 6/26/3 5/27/3 22/28/3 10/11/3 
s 1
f 23/29/7 21/30/7 9/31/7 16/32/7 
s 2
f 15/18/5 24/33/5 8/34/5 16/19/5 
f 8/34/5 7/35/5 23/36/5 16/19/5 
s 1
f 22/37/8 24/38/8 15/39/8 10/40/8 
f 4/4/1 3/3/1 11/41/1 14/42/1 
s 2
f 3/20/5 16/19/5 12/43/5 11/44/5 
s 8
f 16/32/9 9/31/9 13/15/9 12/14/9 
s 2
f 9/10/3 4/9/3 14/45/3 13/46/3 
s 1
f 2/2/1 1/1/1 17/47/1 20/48/1 
s 2
f 1/12/3 10/11/3 18/49/3 17/50/3 
s 8
f 10/40/10 15/39/10 19/23/10 18/22/10 
s 2
f 15/18/5 2/17/5 20/51/5 19/52/5 
s 4
f 6/6/11 21/53/11 23/54/11 7/7/11 
f 8/8/12 24/55/12 22/56/12 5/5/12 
# 22 polygons

