# 3ds Max Wavefront OBJ Exporter v0.97b - (c)2007 guruware
# File Created: 15.12.2016 14:13:11

#
# object _blinking_lamp
#

v  0.2000 -1.7251 -0.0000
v  0.1879 -1.7251 -0.0684
v  0.1879 1.2749 -0.0684
v  0.2000 1.2749 -0.0000
v  0.1532 -1.7251 -0.1286
v  0.1532 1.2749 -0.1286
v  0.1000 -1.7251 -0.1732
v  0.1000 1.2749 -0.1732
v  0.0347 -1.7251 -0.1970
v  0.0347 1.2749 -0.1970
v  -0.0347 -1.7251 -0.1970
v  -0.0347 1.2749 -0.1970
v  -0.1000 -1.7251 -0.1732
v  -0.1000 1.2749 -0.1732
v  -0.1532 -1.7251 -0.1286
v  -0.1532 1.2749 -0.1286
v  -0.1879 -1.7251 -0.0684
v  -0.1879 1.2749 -0.0684
v  -0.2000 -1.7251 -0.0000
v  -0.2000 1.2749 -0.0000
v  -0.1879 -1.7251 0.0684
v  -0.1879 1.2749 0.0684
v  -0.1532 -1.7251 0.1286
v  -0.1532 1.2749 0.1286
v  -0.1000 -1.7251 0.1732
v  -0.1000 1.2749 0.1732
v  -0.0347 -1.7251 0.1970
v  -0.0347 1.2749 0.1970
v  0.0347 -1.7251 0.1970
v  0.0347 1.2749 0.1970
v  0.1000 -1.7251 0.1732
v  0.1000 1.2749 0.1732
v  0.1532 -1.7251 0.1286
v  0.1532 1.2749 0.1286
v  0.1879 -1.7251 0.0684
v  0.1879 1.2749 0.0684
v  0.1970 1.3749 -0.0717
v  0.2097 1.3749 0.0000
v  0.2097 1.2749 0.0000
v  0.1970 1.2749 -0.0717
v  0.1606 1.3749 -0.1348
v  0.1606 1.2749 -0.1348
v  0.1048 1.3749 -0.1816
v  0.1048 1.2749 -0.1816
v  0.0364 1.3749 -0.2065
v  0.0364 1.2749 -0.2065
v  -0.0364 1.3749 -0.2065
v  -0.0364 1.2749 -0.2065
v  -0.1048 1.3749 -0.1816
v  -0.1048 1.2749 -0.1816
v  -0.1606 1.3749 -0.1348
v  -0.1606 1.2749 -0.1348
v  -0.1970 1.3749 -0.0717
v  -0.1970 1.2749 -0.0717
v  -0.2097 1.3749 -0.0000
v  -0.2097 1.2749 -0.0000
v  -0.1970 1.3749 0.0717
v  -0.1970 1.2749 0.0717
v  -0.1606 1.3749 0.1348
v  -0.1606 1.2749 0.1348
v  -0.1048 1.3749 0.1816
v  -0.1048 1.2749 0.1816
v  -0.0364 1.3749 0.2065
v  -0.0364 1.2749 0.2065
v  0.0364 1.3749 0.2065
v  0.0364 1.2749 0.2065
v  0.1048 1.3749 0.1816
v  0.1048 1.2749 0.1816
v  0.1606 1.3749 0.1348
v  0.1606 1.2749 0.1348
v  0.1970 1.3749 0.0717
v  0.1970 1.2749 0.0717
v  0.1875 1.3749 -0.0682
v  0.1995 1.3749 -0.0000
v  0.1528 1.3749 -0.1282
v  0.0998 1.3749 -0.1728
v  0.0346 1.3749 -0.1965
v  -0.0346 1.3749 -0.1965
v  -0.0998 1.3749 -0.1728
v  -0.1528 1.3749 -0.1282
v  -0.1875 1.3749 -0.0682
v  -0.1995 1.3749 -0.0000
v  -0.1875 1.3749 0.0682
v  -0.1528 1.3749 0.1282
v  -0.0998 1.3749 0.1728
v  -0.0346 1.3749 0.1965
v  0.0346 1.3749 0.1965
v  0.0998 1.3749 0.1728
v  0.1528 1.3749 0.1282
v  0.1875 1.3749 0.0682
v  0.1875 1.6749 -0.0682
v  0.1995 1.6749 -0.0000
v  0.1528 1.6749 -0.1282
v  0.0998 1.6749 -0.1728
v  0.0346 1.6749 -0.1965
v  -0.0346 1.6749 -0.1965
v  -0.0998 1.6749 -0.1728
v  -0.1528 1.6749 -0.1282
v  -0.1875 1.6749 -0.0682
v  -0.1995 1.6749 -0.0000
v  -0.1875 1.6749 0.0682
v  -0.1528 1.6749 0.1282
v  -0.0998 1.6749 0.1728
v  -0.0346 1.6749 0.1965
v  0.0346 1.6749 0.1965
v  0.0998 1.6749 0.1728
v  0.1528 1.6749 0.1282
v  0.1875 1.6749 0.0682
v  0.1475 1.7251 -0.0000
v  0.1386 1.7251 -0.0504
v  0.1130 1.7251 -0.0948
v  0.0738 1.7251 -0.1277
v  0.0256 1.7251 -0.1453
v  -0.0256 1.7251 -0.1453
v  -0.0738 1.7251 -0.1277
v  -0.1130 1.7251 -0.0948
v  -0.1386 1.7251 -0.0504
v  -0.1475 1.7251 -0.0000
v  -0.1386 1.7251 0.0504
v  -0.1130 1.7251 0.0948
v  -0.0738 1.7251 0.1277
v  -0.0256 1.7251 0.1453
v  0.0256 1.7251 0.1453
v  0.0738 1.7251 0.1277
v  0.1130 1.7251 0.0948
v  0.1386 1.7251 0.0504
v  0.0921 1.7249 -0.0335
v  0.0980 1.7249 -0.0000
v  0.0751 1.7249 -0.0630
v  0.0490 1.7249 -0.0849
v  0.0170 1.7249 -0.0965
v  -0.0170 1.7249 -0.0965
v  -0.0490 1.7249 -0.0849
v  -0.0751 1.7249 -0.0630
v  -0.0921 1.7249 -0.0335
v  -0.0980 1.7249 -0.0000
v  -0.0921 1.7249 0.0335
v  -0.0751 1.7249 0.0630
v  -0.0490 1.7249 0.0849
v  -0.0170 1.7249 0.0965
v  0.0170 1.7249 0.0965
v  0.0490 1.7249 0.0849
v  0.0751 1.7249 0.0630
v  0.0921 1.7249 0.0335
v  0.0444 1.7249 -0.0161
v  0.0472 1.7249 -0.0000
v  0.0362 1.7249 -0.0303
v  0.0236 1.7249 -0.0409
v  0.0082 1.7249 -0.0465
v  -0.0082 1.7249 -0.0465
v  -0.0236 1.7249 -0.0409
v  -0.0362 1.7249 -0.0303
v  -0.0444 1.7249 -0.0161
v  -0.0472 1.7249 -0.0000
v  -0.0444 1.7249 0.0161
v  -0.0362 1.7249 0.0303
v  -0.0236 1.7249 0.0409
v  -0.0082 1.7249 0.0465
v  0.0082 1.7249 0.0465
v  0.0236 1.7249 0.0409
v  0.0362 1.7249 0.0303
v  0.0444 1.7249 0.0161
v  -0.0000 1.7249 -0.0000
# 163 vertices

vn 1.0000 0.0000 0.0000
vn 0.9397 0.0000 -0.3420
vn 0.7660 0.0000 -0.6428
vn 0.5000 0.0000 -0.8660
vn 0.1736 0.0000 -0.9848
vn -0.1736 0.0000 -0.9848
vn -0.5000 0.0000 -0.8660
vn -0.7660 0.0000 -0.6428
vn -0.9397 0.0000 -0.3420
vn -1.0000 0.0000 -0.0000
vn -0.9397 0.0000 0.3420
vn -0.7660 0.0000 0.6428
vn -0.5000 0.0000 0.8660
vn -0.1736 0.0000 0.9848
vn 0.1736 0.0000 0.9848
vn 0.5000 0.0000 0.8660
vn 0.7660 0.0000 0.6428
vn 0.9397 0.0000 0.3420
vn 0.6976 0.6700 -0.2539
vn 0.7423 0.6700 0.0000
vn 0.5687 0.6700 -0.4772
vn 0.3712 0.6700 -0.6429
vn 0.1289 0.6700 -0.7311
vn -0.1289 0.6700 -0.7311
vn -0.3712 0.6700 -0.6429
vn -0.5687 0.6700 -0.4772
vn -0.6976 0.6700 -0.2539
vn -0.7423 0.6700 -0.0000
vn -0.6976 0.6700 0.2539
vn -0.5687 0.6700 0.4772
vn -0.3712 0.6700 0.6429
vn -0.1289 0.6700 0.7311
vn 0.1289 0.6700 0.7311
vn 0.3712 0.6700 0.6429
vn 0.5687 0.6700 0.4772
vn 0.6976 0.6700 0.2539
vn 0.6233 0.7484 -0.2269
vn 0.6633 0.7484 0.0000
vn 0.5081 0.7484 -0.4264
vn 0.3316 0.7484 -0.5744
vn 0.1152 0.7484 -0.6532
vn -0.1152 0.7484 -0.6532
vn -0.3316 0.7484 -0.5744
vn -0.5081 0.7484 -0.4264
vn -0.6233 0.7484 -0.2269
vn -0.6633 0.7484 -0.0000
vn -0.6233 0.7484 0.2269
vn -0.5081 0.7484 0.4264
vn -0.3316 0.7484 0.5744
vn -0.1152 0.7484 0.6532
vn 0.1152 0.7484 0.6532
vn 0.3316 0.7484 0.5744
vn 0.5081 0.7484 0.4264
vn 0.6233 0.7484 0.2269
vn 0.8706 0.3764 -0.3169
vn 0.9264 0.3764 0.0000
vn 0.7097 0.3764 -0.5955
vn 0.4632 0.3764 -0.8023
vn 0.1609 0.3764 -0.9124
vn -0.1609 0.3764 -0.9124
vn -0.4632 0.3764 -0.8023
vn -0.7097 0.3764 -0.5955
vn -0.8706 0.3764 -0.3169
vn -0.9264 0.3764 -0.0000
vn -0.8706 0.3764 0.3169
vn -0.7097 0.3764 0.5955
vn -0.4632 0.3764 0.8023
vn -0.1609 0.3764 0.9124
vn 0.1609 0.3764 0.9124
vn 0.4632 0.3764 0.8023
vn 0.7097 0.3764 0.5955
vn 0.8706 0.3764 0.3169
vn 0.4077 0.9131 0.0000
vn 0.3831 0.9131 -0.1394
vn 0.3123 0.9131 -0.2621
vn 0.2038 0.9131 -0.3531
vn 0.0708 0.9131 -0.4015
vn -0.0708 0.9131 -0.4015
vn -0.2038 0.9131 -0.3531
vn -0.3123 0.9131 -0.2621
vn -0.3831 0.9131 -0.1394
vn -0.4077 0.9131 -0.0000
vn -0.3831 0.9131 0.1394
vn -0.3123 0.9131 0.2621
vn -0.2038 0.9131 0.3531
vn -0.0708 0.9131 0.4015
vn 0.0708 0.9131 0.4015
vn 0.2038 0.9131 0.3531
vn 0.3123 0.9131 0.2621
vn 0.3831 0.9131 0.1394
vn -0.0014 1.0000 0.0005
vn -0.0015 1.0000 -0.0000
vn -0.0011 1.0000 0.0009
vn -0.0007 1.0000 0.0013
vn -0.0003 1.0000 0.0014
vn 0.0003 1.0000 0.0014
vn 0.0007 1.0000 0.0013
vn 0.0011 1.0000 0.0009
vn 0.0014 1.0000 0.0005
vn 0.0015 1.0000 0.0000
vn 0.0014 1.0000 -0.0005
vn 0.0011 1.0000 -0.0009
vn 0.0007 1.0000 -0.0013
vn 0.0003 1.0000 -0.0014
vn -0.0003 1.0000 -0.0014
vn -0.0007 1.0000 -0.0013
vn -0.0011 1.0000 -0.0009
vn -0.0014 1.0000 -0.0005
vn 0.0000 1.0000 -0.0000
vn 0.0000 1.0000 0.0000
vn -0.0000 1.0000 -0.0000
vn -0.0000 1.0000 0.0000
# 112 vertex normals

vt 0.0020 0.0020 0.0000
vt 0.0251 0.0020 0.0000
vt 0.0251 0.9980 0.0000
vt 0.0020 0.9980 0.0000
vt 0.0481 0.0020 0.0000
vt 0.0481 0.9980 0.0000
vt 0.0712 0.0020 0.0000
vt 0.0712 0.9980 0.0000
vt 0.0942 0.0020 0.0000
vt 0.0942 0.9980 0.0000
vt 0.1173 0.0020 0.0000
vt 0.1173 0.9980 0.0000
vt 0.1404 0.0020 0.0000
vt 0.1404 0.9980 0.0000
vt 0.1634 0.0020 0.0000
vt 0.1634 0.9980 0.0000
vt 0.1865 0.0020 0.0000
vt 0.1865 0.9980 0.0000
vt 0.2095 0.0020 0.0000
vt 0.2095 0.9980 0.0000
vt 0.2326 0.0020 0.0000
vt 0.2326 0.9980 0.0000
vt 0.2557 0.0020 0.0000
vt 0.2557 0.9980 0.0000
vt 0.2787 0.0020 0.0000
vt 0.2787 0.9980 0.0000
vt 0.3018 0.0020 0.0000
vt 0.3018 0.9980 0.0000
vt 0.3248 0.0020 0.0000
vt 0.3248 0.9980 0.0000
vt 0.3479 0.0020 0.0000
vt 0.3479 0.9980 0.0000
vt 0.3710 0.0020 0.0000
vt 0.3710 0.9980 0.0000
vt 0.3940 0.0020 0.0000
vt 0.3940 0.9980 0.0000
vt 0.4171 0.0020 0.0000
vt 0.4171 0.9980 0.0000
vt 0.4799 0.4696 0.0000
vt 0.4557 0.4696 0.0000
vt 0.4557 0.4364 0.0000
vt 0.4799 0.4364 0.0000
vt 0.5041 0.4696 0.0000
vt 0.5041 0.4364 0.0000
vt 0.5282 0.4696 0.0000
vt 0.5282 0.4364 0.0000
vt 0.5524 0.4696 0.0000
vt 0.5524 0.4364 0.0000
vt 0.5766 0.4696 0.0000
vt 0.5766 0.4364 0.0000
vt 0.6008 0.4696 0.0000
vt 0.6008 0.4364 0.0000
vt 0.6249 0.4696 0.0000
vt 0.6249 0.4364 0.0000
vt 0.6491 0.4696 0.0000
vt 0.6491 0.4364 0.0000
vt 0.6733 0.4696 0.0000
vt 0.6733 0.4364 0.0000
vt 0.6975 0.4696 0.0000
vt 0.6975 0.4364 0.0000
vt 0.7216 0.4696 0.0000
vt 0.7216 0.4364 0.0000
vt 0.7458 0.4696 0.0000
vt 0.7458 0.4364 0.0000
vt 0.7700 0.4696 0.0000
vt 0.7700 0.4364 0.0000
vt 0.7942 0.4696 0.0000
vt 0.7942 0.4364 0.0000
vt 0.8184 0.4696 0.0000
vt 0.8184 0.4364 0.0000
vt 0.8425 0.4696 0.0000
vt 0.8425 0.4364 0.0000
vt 0.8667 0.4696 0.0000
vt 0.8667 0.4364 0.0000
vt 0.4315 0.4696 0.0000
vt 0.4315 0.4364 0.0000
vt 0.4891 0.2848 0.0000
vt 0.5132 0.2848 0.0000
vt 0.5127 0.2881 0.0000
vt 0.4896 0.2881 0.0000
vt 0.5360 0.2931 0.0000
vt 0.5343 0.2960 0.0000
vt 0.5545 0.3086 0.0000
vt 0.5519 0.3108 0.0000
vt 0.5666 0.3296 0.0000
vt 0.5634 0.3307 0.0000
vt 0.5708 0.3534 0.0000
vt 0.5674 0.3534 0.0000
vt 0.5666 0.3772 0.0000
vt 0.5634 0.3760 0.0000
vt 0.5545 0.3981 0.0000
vt 0.5519 0.3960 0.0000
vt 0.5360 0.4137 0.0000
vt 0.5343 0.4107 0.0000
vt 0.5132 0.4219 0.0000
vt 0.5127 0.4186 0.0000
vt 0.4891 0.4219 0.0000
vt 0.4896 0.4186 0.0000
vt 0.4663 0.4137 0.0000
vt 0.4680 0.4107 0.0000
vt 0.4478 0.3981 0.0000
vt 0.4504 0.3960 0.0000
vt 0.4357 0.3772 0.0000
vt 0.4389 0.3760 0.0000
vt 0.4315 0.3534 0.0000
vt 0.4349 0.3534 0.0000
vt 0.4357 0.3296 0.0000
vt 0.4389 0.3307 0.0000
vt 0.4478 0.3086 0.0000
vt 0.4504 0.3108 0.0000
vt 0.4663 0.2931 0.0000
vt 0.4680 0.2960 0.0000
vt 0.4775 0.1016 0.0000
vt 0.4545 0.1016 0.0000
vt 0.4545 0.0020 0.0000
vt 0.4775 0.0020 0.0000
vt 0.5006 0.1016 0.0000
vt 0.5006 0.0020 0.0000
vt 0.5236 0.1016 0.0000
vt 0.5236 0.0020 0.0000
vt 0.5466 0.1016 0.0000
vt 0.5466 0.0020 0.0000
vt 0.5696 0.1016 0.0000
vt 0.5696 0.0020 0.0000
vt 0.5926 0.1016 0.0000
vt 0.5926 0.0020 0.0000
vt 0.6156 0.1016 0.0000
vt 0.6156 0.0020 0.0000
vt 0.6386 0.1016 0.0000
vt 0.6386 0.0020 0.0000
vt 0.6616 0.1016 0.0000
vt 0.6616 0.0020 0.0000
vt 0.6846 0.1016 0.0000
vt 0.6846 0.0020 0.0000
vt 0.7076 0.1016 0.0000
vt 0.7076 0.0020 0.0000
vt 0.7306 0.1016 0.0000
vt 0.7306 0.0020 0.0000
vt 0.7536 0.1016 0.0000
vt 0.7536 0.0020 0.0000
vt 0.7766 0.1016 0.0000
vt 0.7766 0.0020 0.0000
vt 0.7996 0.1016 0.0000
vt 0.7996 0.0020 0.0000
vt 0.8226 0.1016 0.0000
vt 0.8226 0.0020 0.0000
vt 0.8456 0.1016 0.0000
vt 0.8456 0.0020 0.0000
vt 0.4315 0.1016 0.0000
vt 0.4315 0.0020 0.0000
vt 0.4542 0.1932 0.0000
vt 0.4315 0.1932 0.0000
vt 0.4363 0.1664 0.0000
vt 0.4576 0.1742 0.0000
vt 0.4499 0.1428 0.0000
vt 0.4672 0.1574 0.0000
vt 0.4707 0.1254 0.0000
vt 0.4820 0.1450 0.0000
vt 0.4963 0.1160 0.0000
vt 0.5002 0.1384 0.0000
vt 0.5235 0.1160 0.0000
vt 0.5196 0.1384 0.0000
vt 0.5491 0.1254 0.0000
vt 0.5377 0.1450 0.0000
vt 0.5699 0.1428 0.0000
vt 0.5526 0.1574 0.0000
vt 0.5835 0.1664 0.0000
vt 0.5622 0.1742 0.0000
vt 0.5882 0.1932 0.0000
vt 0.5656 0.1932 0.0000
vt 0.5835 0.2200 0.0000
vt 0.5622 0.2123 0.0000
vt 0.5699 0.2436 0.0000
vt 0.5526 0.2290 0.0000
vt 0.5491 0.2611 0.0000
vt 0.5377 0.2414 0.0000
vt 0.5235 0.2704 0.0000
vt 0.5196 0.2481 0.0000
vt 0.4963 0.2704 0.0000
vt 0.5002 0.2481 0.0000
vt 0.4707 0.2611 0.0000
vt 0.4820 0.2414 0.0000
vt 0.4499 0.2436 0.0000
vt 0.4672 0.2290 0.0000
vt 0.4363 0.2200 0.0000
vt 0.4576 0.2123 0.0000
vt 0.4765 0.1811 0.0000
vt 0.4744 0.1932 0.0000
vt 0.4827 0.1704 0.0000
vt 0.4921 0.1625 0.0000
vt 0.5037 0.1582 0.0000
vt 0.5161 0.1582 0.0000
vt 0.5276 0.1625 0.0000
vt 0.5371 0.1704 0.0000
vt 0.5433 0.1811 0.0000
vt 0.5454 0.1932 0.0000
vt 0.5433 0.2054 0.0000
vt 0.5371 0.2160 0.0000
vt 0.5276 0.2240 0.0000
vt 0.5161 0.2282 0.0000
vt 0.5037 0.2282 0.0000
vt 0.4921 0.2240 0.0000
vt 0.4827 0.2160 0.0000
vt 0.4765 0.2054 0.0000
vt 0.4938 0.1874 0.0000
vt 0.4928 0.1932 0.0000
vt 0.4968 0.1822 0.0000
vt 0.5013 0.1784 0.0000
vt 0.5069 0.1764 0.0000
vt 0.5129 0.1764 0.0000
vt 0.5184 0.1784 0.0000
vt 0.5230 0.1822 0.0000
vt 0.5260 0.1874 0.0000
vt 0.5270 0.1932 0.0000
vt 0.5260 0.1991 0.0000
vt 0.5230 0.2042 0.0000
vt 0.5184 0.2080 0.0000
vt 0.5129 0.2101 0.0000
vt 0.5069 0.2101 0.0000
vt 0.5013 0.2080 0.0000
vt 0.4968 0.2042 0.0000
vt 0.4938 0.1991 0.0000
vt 0.5099 0.1932 0.0000
# 223 texture coords

g _blinking_lamp
f 1/1/1 2/2/2 3/3/2 4/4/1 
f 2/2/2 5/5/3 6/6/3 3/3/2 
f 5/5/3 7/7/4 8/8/4 6/6/3 
f 7/7/4 9/9/5 10/10/5 8/8/4 
f 9/9/5 11/11/6 12/12/6 10/10/5 
f 11/11/6 13/13/7 14/14/7 12/12/6 
f 13/13/7 15/15/8 16/16/8 14/14/7 
f 15/15/8 17/17/9 18/18/9 16/16/8 
f 17/17/9 19/19/10 20/20/10 18/18/9 
f 19/19/10 21/21/11 22/22/11 20/20/10 
f 21/21/11 23/23/12 24/24/12 22/22/11 
f 23/23/12 25/25/13 26/26/13 24/24/12 
f 25/25/13 27/27/14 28/28/14 26/26/13 
f 27/27/14 29/29/15 30/30/15 28/28/14 
f 29/29/15 31/31/16 32/32/16 30/30/15 
f 31/31/16 33/33/17 34/34/17 32/32/16 
f 33/33/17 35/35/18 36/36/18 34/34/17 
f 35/35/18 1/37/1 4/38/1 36/36/18 
f 37/39/19 38/40/20 39/41/1 40/42/2 
f 41/43/21 37/39/19 40/42/2 42/44/3 
f 43/45/22 41/43/21 42/44/3 44/46/4 
f 45/47/23 43/45/22 44/46/4 46/48/5 
f 47/49/24 45/47/23 46/48/5 48/50/6 
f 49/51/25 47/49/24 48/50/6 50/52/7 
f 51/53/26 49/51/25 50/52/7 52/54/8 
f 53/55/27 51/53/26 52/54/8 54/56/9 
f 55/57/28 53/55/27 54/56/9 56/58/10 
f 57/59/29 55/57/28 56/58/10 58/60/11 
f 59/61/30 57/59/29 58/60/11 60/62/12 
f 61/63/31 59/61/30 60/62/12 62/64/13 
f 63/65/32 61/63/31 62/64/13 64/66/14 
f 65/67/33 63/65/32 64/66/14 66/68/15 
f 67/69/34 65/67/33 66/68/15 68/70/16 
f 69/71/35 67/69/34 68/70/16 70/72/17 
f 71/73/36 69/71/35 70/72/17 72/74/18 
f 38/40/20 71/75/36 72/76/18 39/41/1 
f 38/77/20 37/78/19 73/79/37 74/80/38 
f 37/78/19 41/81/21 75/82/39 73/79/37 
f 41/81/21 43/83/22 76/84/40 75/82/39 
f 43/83/22 45/85/23 77/86/41 76/84/40 
f 45/85/23 47/87/24 78/88/42 77/86/41 
f 47/87/24 49/89/25 79/90/43 78/88/42 
f 49/89/25 51/91/26 80/92/44 79/90/43 
f 51/91/26 53/93/27 81/94/45 80/92/44 
f 53/93/27 55/95/28 82/96/46 81/94/45 
f 55/95/28 57/97/29 83/98/47 82/96/46 
f 57/97/29 59/99/30 84/100/48 83/98/47 
f 59/99/30 61/101/31 85/102/49 84/100/48 
f 61/101/31 63/103/32 86/104/50 85/102/49 
f 63/103/32 65/105/33 87/106/51 86/104/50 
f 65/105/33 67/107/34 88/108/52 87/106/51 
f 67/107/34 69/109/35 89/110/53 88/108/52 
f 69/109/35 71/111/36 90/112/54 89/110/53 
f 71/111/36 38/77/20 74/80/38 90/112/54 
f 91/113/55 92/114/56 74/115/38 73/116/37 
f 93/117/57 91/113/55 73/116/37 75/118/39 
f 94/119/58 93/117/57 75/118/39 76/120/40 
f 95/121/59 94/119/58 76/120/40 77/122/41 
f 96/123/60 95/121/59 77/122/41 78/124/42 
f 97/125/61 96/123/60 78/124/42 79/126/43 
f 98/127/62 97/125/61 79/126/43 80/128/44 
f 99/129/63 98/127/62 80/128/44 81/130/45 
f 100/131/64 99/129/63 81/130/45 82/132/46 
f 101/133/65 100/131/64 82/132/46 83/134/47 
f 102/135/66 101/133/65 83/134/47 84/136/48 
f 103/137/67 102/135/66 84/136/48 85/138/49 
f 104/139/68 103/137/67 85/138/49 86/140/50 
f 105/141/69 104/139/68 86/140/50 87/142/51 
f 106/143/70 105/141/69 87/142/51 88/144/52 
f 107/145/71 106/143/70 88/144/52 89/146/53 
f 108/147/72 107/145/71 89/146/53 90/148/54 
f 92/114/56 108/149/72 90/150/54 74/115/38 
f 109/151/73 92/152/56 91/153/55 110/154/74 
f 110/154/74 91/153/55 93/155/57 111/156/75 
f 111/156/75 93/155/57 94/157/58 112/158/76 
f 112/158/76 94/157/58 95/159/59 113/160/77 
f 113/160/77 95/159/59 96/161/60 114/162/78 
f 114/162/78 96/161/60 97/163/61 115/164/79 
f 115/164/79 97/163/61 98/165/62 116/166/80 
f 116/166/80 98/165/62 99/167/63 117/168/81 
f 117/168/81 99/167/63 100/169/64 118/170/82 
f 118/170/82 100/169/64 101/171/65 119/172/83 
f 119/172/83 101/171/65 102/173/66 120/174/84 
f 120/174/84 102/173/66 103/175/67 121/176/85 
f 121/176/85 103/175/67 104/177/68 122/178/86 
f 122/178/86 104/177/68 105/179/69 123/180/87 
f 123/180/87 105/179/69 106/181/70 124/182/88 
f 124/182/88 106/181/70 107/183/71 125/184/89 
f 125/184/89 107/183/71 108/185/72 126/186/90 
f 126/186/90 108/185/72 92/152/56 109/151/73 
f 109/151/73 110/154/74 127/187/91 128/188/92 
f 110/154/74 111/156/75 129/189/93 127/187/91 
f 111/156/75 112/158/76 130/190/94 129/189/93 
f 112/158/76 113/160/77 131/191/95 130/190/94 
f 113/160/77 114/162/78 132/192/96 131/191/95 
f 114/162/78 115/164/79 133/193/97 132/192/96 
f 115/164/79 116/166/80 134/194/98 133/193/97 
f 116/166/80 117/168/81 135/195/99 134/194/98 
f 117/168/81 118/170/82 136/196/100 135/195/99 
f 118/170/82 119/172/83 137/197/101 136/196/100 
f 119/172/83 120/174/84 138/198/102 137/197/101 
f 120/174/84 121/176/85 139/199/103 138/198/102 
f 121/176/85 122/178/86 140/200/104 139/199/103 
f 122/178/86 123/180/87 141/201/105 140/200/104 
f 123/180/87 124/182/88 142/202/106 141/201/105 
f 124/182/88 125/184/89 143/203/107 142/202/106 
f 125/184/89 126/186/90 144/204/108 143/203/107 
f 126/186/90 109/151/73 128/188/92 144/204/108 
f 128/188/92 127/187/91 145/205/109 146/206/110 
f 127/187/91 129/189/93 147/207/109 145/205/109 
f 129/189/93 130/190/94 148/208/109 147/207/109 
f 130/190/94 131/191/95 149/209/109 148/208/109 
f 131/191/95 132/192/96 150/210/111 149/209/109 
f 132/192/96 133/193/97 151/211/111 150/210/111 
f 133/193/97 134/194/98 152/212/111 151/211/111 
f 134/194/98 135/195/99 153/213/111 152/212/111 
f 135/195/99 136/196/100 154/214/111 153/213/111 
f 136/196/100 137/197/101 155/215/112 154/214/111 
f 137/197/101 138/198/102 156/216/112 155/215/112 
f 138/198/102 139/199/103 157/217/112 156/216/112 
f 139/199/103 140/200/104 158/218/112 157/217/112 
f 140/200/104 141/201/105 159/219/110 158/218/112 
f 141/201/105 142/202/106 160/220/110 159/219/110 
f 142/202/106 143/203/107 161/221/110 160/220/110 
f 143/203/107 144/204/108 162/222/110 161/221/110 
f 144/204/108 128/188/92 146/206/110 162/222/110 
f 146/206/110 145/205/109 163/223/111 
f 145/205/109 147/207/109 163/223/111 
f 147/207/109 148/208/109 163/223/111 
f 148/208/109 149/209/109 163/223/111 
f 149/209/109 150/210/111 163/223/111 
f 150/210/111 151/211/111 163/223/111 
f 151/211/111 152/212/111 163/223/111 
f 152/212/111 153/213/111 163/223/111 
f 153/213/111 154/214/111 163/223/111 
f 154/214/111 155/215/112 163/223/111 
f 155/215/112 156/216/112 163/223/111 
f 156/216/112 157/217/112 163/223/111 
f 157/217/112 158/218/112 163/223/111 
f 158/218/112 159/219/110 163/223/111 
f 159/219/110 160/220/110 163/223/111 
f 160/220/110 161/221/110 163/223/111 
f 161/221/110 162/222/110 163/223/111 
f 162/222/110 146/206/110 163/223/111 
# 126 polygons - 18 triangles

