# 3ds Max Wavefront OBJ Exporter v0.97b - (c)2007 guruware
# File Created: 14.12.2016 14:52:24

#
# object metal_cube
#

v  -0.9983 -0.9983 -0.9983
v  0.9983 -0.9983 -0.9983
v  0.9983 -0.9983 0.9983
v  -0.9983 -0.9983 0.9983
v  0.9983 0.9983 -0.9983
v  -0.9983 0.9983 -0.9983
v  -0.9983 0.9983 0.9983
v  0.9983 0.9983 0.9983
# 8 vertices

vn -0.5774 -0.5774 -0.5774
vn 0.5774 -0.5774 -0.5774
vn 0.5774 -0.5774 0.5774
vn -0.5774 -0.5774 0.5774
vn 0.5774 0.5774 -0.5774
vn -0.5774 0.5774 -0.5774
vn -0.5774 0.5774 0.5774
vn 0.5774 0.5774 0.5774
# 8 vertex normals

vt 0.5000 0.2510 0.0000
vt 0.7490 0.2510 0.0000
vt 0.7490 0.5000 0.0000
vt 0.5000 0.5000 0.0000
vt 0.0020 0.2510 0.0000
vt 0.2510 0.2510 0.0000
vt 0.2510 0.5000 0.0000
vt 0.0020 0.5000 0.0000
vt 0.7490 0.7490 0.0000
vt 0.5000 0.7490 0.0000
vt 0.9980 0.2510 0.0000
vt 0.9980 0.5000 0.0000
vt 0.5000 0.0020 0.0000
vt 0.7490 0.0020 0.0000
# 14 texture coords

g metal_cube
f 1/1/1 2/2/2 3/3/3 4/4/4 
f 5/5/5 6/6/6 7/7/7 8/8/8 
f 3/3/3 8/9/8 7/10/7 4/4/4 
f 5/11/5 8/12/8 3/3/3 2/2/2 
f 1/1/1 6/13/6 5/14/5 2/2/2 
f 1/1/1 4/4/4 7/7/7 6/6/6 
# 6 polygons

