# 3ds Max Wavefront OBJ Exporter v0.97b - (c)2007 guruware
# File Created: 03.11.2016 10:23:09

#
# object sheet
#

v  0.0295 0.0150 1.0000
v  0.0295 0.0150 0.5000
v  -0.0097 0.0380 0.5000
v  -0.0097 0.0380 1.0000
v  0.4116 0.0043 1.0000
v  0.4116 0.0043 0.5000
v  0.3540 0.0380 0.5000
v  0.3540 0.0380 1.0000
v  0.2824 0.0380 1.0000
v  0.2824 0.0380 0.5000
v  0.2432 0.0150 0.5000
v  0.2432 0.0150 1.0000
v  0.2113 0.0150 1.0000
v  0.2113 0.0150 0.5000
v  0.1722 0.0380 0.5000
v  0.1722 0.0380 1.0000
v  0.1006 0.0380 1.0000
v  0.1006 0.0380 0.5000
v  0.0614 0.0150 0.5000
v  0.0614 0.0150 1.0000
v  -0.5025 0.0043 -1.0000
v  -0.5025 0.0043 -0.5000
v  -0.4449 0.0380 -0.5000
v  -0.4449 0.0380 -1.0000
v  -0.3733 0.0380 -1.0000
v  -0.3733 0.0380 -0.5000
v  -0.3341 0.0150 -0.5000
v  -0.3341 0.0150 -1.0000
v  -0.3023 0.0150 -1.0000
v  -0.3023 0.0150 -0.5000
v  -0.2631 0.0380 -0.5000
v  -0.2631 0.0380 -1.0000
v  -0.1915 0.0380 -1.0000
v  -0.1915 0.0380 -0.5000
v  -0.1523 0.0150 -0.5000
v  -0.1523 0.0150 -1.0000
v  -0.1204 0.0150 -1.0000
v  -0.1204 0.0150 -0.5000
v  -0.0812 0.0380 -0.5000
v  -0.0812 0.0380 -1.0000
v  -0.0097 0.0380 -0.5000
v  -0.0097 0.0380 -1.0000
v  0.0295 0.0150 -0.5000
v  -0.0097 0.0380 -0.0000
v  0.0295 0.0150 -0.0000
v  0.4116 0.0043 -0.5000
v  0.3540 0.0380 -0.5000
v  0.3540 0.0380 -0.0000
v  0.4116 0.0043 -0.0000
v  0.2824 0.0380 -0.5000
v  0.2432 0.0150 -0.5000
v  0.2432 0.0150 -0.0000
v  0.2824 0.0380 -0.0000
v  0.2113 0.0150 -0.5000
v  0.1722 0.0380 -0.5000
v  0.1722 0.0380 -0.0000
v  0.2113 0.0150 -0.0000
v  0.1006 0.0380 -0.5000
v  0.0614 0.0150 -0.5000
v  0.0614 0.0150 -0.0000
v  0.1006 0.0380 -0.0000
v  -0.5025 0.0043 0.5000
v  -0.4449 0.0380 0.5000
v  -0.4449 0.0380 -0.0000
v  -0.5025 0.0043 -0.0000
v  -0.3733 0.0380 0.5000
v  -0.3341 0.0150 0.5000
v  -0.3341 0.0150 -0.0000
v  -0.3733 0.0380 -0.0000
v  -0.3023 0.0150 0.5000
v  -0.2631 0.0380 0.5000
v  -0.2631 0.0380 -0.0000
v  -0.3023 0.0150 -0.0000
v  -0.1915 0.0380 0.5000
v  -0.1523 0.0150 0.5000
v  -0.1523 0.0150 -0.0000
v  -0.1915 0.0380 -0.0000
v  -0.1204 0.0150 0.5000
v  -0.0812 0.0380 0.5000
v  -0.0812 0.0380 -0.0000
v  -0.1204 0.0150 -0.0000
v  0.0295 0.0150 -1.0000
v  0.4116 0.0043 -1.0000
v  0.3540 0.0380 -1.0000
v  0.2824 0.0380 -1.0000
v  0.2432 0.0150 -1.0000
v  0.2113 0.0150 -1.0000
v  0.1722 0.0380 -1.0000
v  0.1006 0.0380 -1.0000
v  0.0614 0.0150 -1.0000
v  -0.5025 0.0043 1.0000
v  -0.4449 0.0380 1.0000
v  -0.3733 0.0380 1.0000
v  -0.3341 0.0150 1.0000
v  -0.3023 0.0150 1.0000
v  -0.2631 0.0380 1.0000
v  -0.1915 0.0380 1.0000
v  -0.1523 0.0150 1.0000
v  -0.1204 0.0150 1.0000
v  -0.0812 0.0380 1.0000
v  -0.0110 0.0332 0.5000
v  0.0282 0.0101 0.5000
v  0.0282 0.0101 1.0000
v  -0.0110 0.0332 1.0000
v  0.3527 0.0332 0.5000
v  0.4091 0.0000 0.5000
v  0.4091 0.0000 1.0000
v  0.3527 0.0332 1.0000
v  0.2445 0.0101 0.5000
v  0.2837 0.0332 0.5000
v  0.2837 0.0332 1.0000
v  0.2445 0.0101 1.0000
v  0.1708 0.0332 0.5000
v  0.2100 0.0101 0.5000
v  0.2100 0.0101 1.0000
v  0.1708 0.0332 1.0000
v  0.0627 0.0101 0.5000
v  0.1019 0.0332 0.5000
v  0.1019 0.0332 1.0000
v  0.0627 0.0101 1.0000
v  -0.4436 0.0332 -0.5000
v  -0.5000 0.0000 -0.5000
v  -0.5000 0.0000 -1.0000
v  -0.4436 0.0332 -1.0000
v  -0.3354 0.0101 -0.5000
v  -0.3746 0.0332 -0.5000
v  -0.3746 0.0332 -1.0000
v  -0.3354 0.0101 -1.0000
v  -0.2617 0.0332 -0.5000
v  -0.3009 0.0101 -0.5000
v  -0.3009 0.0101 -1.0000
v  -0.2617 0.0332 -1.0000
v  -0.1536 0.0101 -0.5000
v  -0.1928 0.0332 -0.5000
v  -0.1928 0.0332 -1.0000
v  -0.1536 0.0101 -1.0000
v  -0.0799 0.0332 -0.5000
v  -0.1191 0.0101 -0.5000
v  -0.1191 0.0101 -1.0000
v  -0.0799 0.0332 -1.0000
v  -0.0110 0.0332 -0.5000
v  -0.0110 0.0332 -1.0000
v  -0.0110 0.0332 -0.0000
v  0.0282 0.0101 -0.5000
v  0.0282 0.0101 -0.0000
v  0.3527 0.0332 -0.0000
v  0.3527 0.0332 -0.5000
v  0.4091 0.0000 -0.5000
v  0.4091 0.0000 -0.0000
v  0.2445 0.0101 -0.0000
v  0.2445 0.0101 -0.5000
v  0.2837 0.0332 -0.5000
v  0.2837 0.0332 -0.0000
v  0.1708 0.0332 -0.0000
v  0.1708 0.0332 -0.5000
v  0.2100 0.0101 -0.5000
v  0.2100 0.0101 -0.0000
v  0.0627 0.0101 -0.0000
v  0.0627 0.0101 -0.5000
v  0.1019 0.0332 -0.5000
v  0.1019 0.0332 -0.0000
v  -0.4436 0.0332 -0.0000
v  -0.4436 0.0332 0.5000
v  -0.5000 0.0000 0.5000
v  -0.5000 0.0000 -0.0000
v  -0.3354 0.0101 -0.0000
v  -0.3354 0.0101 0.5000
v  -0.3746 0.0332 0.5000
v  -0.3746 0.0332 -0.0000
v  -0.2617 0.0332 -0.0000
v  -0.2617 0.0332 0.5000
v  -0.3009 0.0101 0.5000
v  -0.3009 0.0101 -0.0000
v  -0.1536 0.0101 -0.0000
v  -0.1536 0.0101 0.5000
v  -0.1928 0.0332 0.5000
v  -0.1928 0.0332 -0.0000
v  -0.0799 0.0332 -0.0000
v  -0.0799 0.0332 0.5000
v  -0.1191 0.0101 0.5000
v  -0.1191 0.0101 -0.0000
v  0.0282 0.0101 -1.0000
v  0.3527 0.0332 -1.0000
v  0.4091 0.0000 -1.0000
v  0.2445 0.0101 -1.0000
v  0.2837 0.0332 -1.0000
v  0.1708 0.0332 -1.0000
v  0.2100 0.0101 -1.0000
v  0.0627 0.0101 -1.0000
v  0.1019 0.0332 -1.0000
v  -0.4436 0.0332 1.0000
v  -0.5000 0.0000 1.0000
v  -0.3354 0.0101 1.0000
v  -0.3746 0.0332 1.0000
v  -0.2617 0.0332 1.0000
v  -0.3009 0.0101 1.0000
v  -0.1536 0.0101 1.0000
v  -0.1928 0.0332 1.0000
v  -0.0799 0.0332 1.0000
v  -0.1191 0.0101 1.0000
# 200 vertices

vn 0.5071 0.8619 -0.0000
vn 0.5049 0.8632 -0.0000
vn -0.5071 0.8619 -0.0000
vn -0.5049 0.8632 -0.0000
vn 0.0000 1.0000 -0.0000
vn -0.5071 -0.8619 -0.0000
vn 0.5071 -0.8619 -0.0000
vn 0.0000 -1.0000 -0.0000
vn 0.0000 0.0000 1.0000
vn 0.8619 -0.5071 -0.0000
vn -0.8619 -0.5071 -0.0000
vn 0.0000 0.0000 -1.0000
# 12 vertex normals

vt 0.0100 0.1774 0.0000
vt 0.2291 0.1774 0.0000
vt 0.2291 0.1946 0.0000
vt 0.0100 0.1946 0.0000
vt 0.0100 0.0100 0.0000
vt 0.2291 0.0100 0.0000
vt 0.2291 0.0353 0.0000
vt 0.0100 0.0353 0.0000
vt 0.0100 0.0666 0.0000
vt 0.2291 0.0666 0.0000
vt 0.2291 0.0838 0.0000
vt 0.0100 0.0838 0.0000
vt 0.0100 0.0978 0.0000
vt 0.2291 0.0978 0.0000
vt 0.2291 0.1149 0.0000
vt 0.0100 0.1149 0.0000
vt 0.0100 0.1463 0.0000
vt 0.2291 0.1463 0.0000
vt 0.2291 0.1635 0.0000
vt 0.0100 0.1635 0.0000
vt 0.8864 0.4106 0.0000
vt 0.6673 0.4106 0.0000
vt 0.6673 0.3853 0.0000
vt 0.8864 0.3853 0.0000
vt 0.8864 0.3540 0.0000
vt 0.6673 0.3540 0.0000
vt 0.6673 0.3368 0.0000
vt 0.8864 0.3368 0.0000
vt 0.8864 0.3228 0.0000
vt 0.6673 0.3228 0.0000
vt 0.6673 0.3057 0.0000
vt 0.8864 0.3057 0.0000
vt 0.8864 0.2743 0.0000
vt 0.6673 0.2743 0.0000
vt 0.6673 0.2571 0.0000
vt 0.8864 0.2571 0.0000
vt 0.8864 0.2432 0.0000
vt 0.6673 0.2432 0.0000
vt 0.6673 0.2260 0.0000
vt 0.8864 0.2260 0.0000
vt 0.6673 0.1946 0.0000
vt 0.8864 0.1946 0.0000
vt 0.6673 0.1774 0.0000
vt 0.4482 0.1946 0.0000
vt 0.4482 0.1774 0.0000
vt 0.6673 0.0100 0.0000
vt 0.6673 0.0353 0.0000
vt 0.4482 0.0353 0.0000
vt 0.4482 0.0100 0.0000
vt 0.6673 0.0666 0.0000
vt 0.6673 0.0838 0.0000
vt 0.4482 0.0838 0.0000
vt 0.4482 0.0666 0.0000
vt 0.6673 0.0978 0.0000
vt 0.6673 0.1149 0.0000
vt 0.4482 0.1149 0.0000
vt 0.4482 0.0978 0.0000
vt 0.6673 0.1463 0.0000
vt 0.6673 0.1635 0.0000
vt 0.4482 0.1635 0.0000
vt 0.4482 0.1463 0.0000
vt 0.2291 0.4106 0.0000
vt 0.2291 0.3853 0.0000
vt 0.4482 0.3853 0.0000
vt 0.4482 0.4106 0.0000
vt 0.2291 0.3540 0.0000
vt 0.2291 0.3368 0.0000
vt 0.4482 0.3368 0.0000
vt 0.4482 0.3540 0.0000
vt 0.2291 0.3228 0.0000
vt 0.2291 0.3057 0.0000
vt 0.4482 0.3057 0.0000
vt 0.4482 0.3228 0.0000
vt 0.2291 0.2743 0.0000
vt 0.2291 0.2571 0.0000
vt 0.4482 0.2571 0.0000
vt 0.4482 0.2743 0.0000
vt 0.2291 0.2432 0.0000
vt 0.2291 0.2260 0.0000
vt 0.4482 0.2260 0.0000
vt 0.4482 0.2432 0.0000
vt 0.8864 0.1774 0.0000
vt 0.8864 0.0100 0.0000
vt 0.8864 0.0353 0.0000
vt 0.8864 0.0666 0.0000
vt 0.8864 0.0838 0.0000
vt 0.8864 0.0978 0.0000
vt 0.8864 0.1149 0.0000
vt 0.8864 0.1463 0.0000
vt 0.8864 0.1635 0.0000
vt 0.0100 0.4106 0.0000
vt 0.0100 0.3853 0.0000
vt 0.0100 0.3540 0.0000
vt 0.0100 0.3368 0.0000
vt 0.0100 0.3228 0.0000
vt 0.0100 0.3057 0.0000
vt 0.0100 0.2743 0.0000
vt 0.0100 0.2571 0.0000
vt 0.0100 0.2432 0.0000
vt 0.0100 0.2260 0.0000
vt 0.6673 0.6285 0.0000
vt 0.6673 0.6114 0.0000
vt 0.8864 0.6114 0.0000
vt 0.8864 0.6285 0.0000
vt 0.6673 0.4692 0.0000
vt 0.6673 0.4445 0.0000
vt 0.8864 0.4445 0.0000
vt 0.8864 0.4692 0.0000
vt 0.6673 0.5166 0.0000
vt 0.6673 0.4994 0.0000
vt 0.8864 0.4994 0.0000
vt 0.8864 0.5166 0.0000
vt 0.6673 0.5489 0.0000
vt 0.6673 0.5317 0.0000
vt 0.8864 0.5317 0.0000
vt 0.8864 0.5489 0.0000
vt 0.6673 0.5963 0.0000
vt 0.6673 0.5791 0.0000
vt 0.8864 0.5791 0.0000
vt 0.8864 0.5963 0.0000
vt 0.2291 0.8181 0.0000
vt 0.2291 0.8428 0.0000
vt 0.0100 0.8428 0.0000
vt 0.0100 0.8181 0.0000
vt 0.2291 0.7707 0.0000
vt 0.2291 0.7879 0.0000
vt 0.0100 0.7879 0.0000
vt 0.0100 0.7707 0.0000
vt 0.2291 0.7384 0.0000
vt 0.2291 0.7556 0.0000
vt 0.0100 0.7556 0.0000
vt 0.0100 0.7384 0.0000
vt 0.2291 0.6910 0.0000
vt 0.2291 0.7082 0.0000
vt 0.0100 0.7082 0.0000
vt 0.0100 0.6910 0.0000
vt 0.2291 0.6587 0.0000
vt 0.2291 0.6759 0.0000
vt 0.0100 0.6759 0.0000
vt 0.0100 0.6587 0.0000
vt 0.2291 0.6285 0.0000
vt 0.0100 0.6285 0.0000
vt 0.4482 0.6285 0.0000
vt 0.2291 0.6114 0.0000
vt 0.4482 0.6114 0.0000
vt 0.4482 0.4692 0.0000
vt 0.2291 0.4692 0.0000
vt 0.2291 0.4445 0.0000
vt 0.4482 0.4445 0.0000
vt 0.4482 0.5166 0.0000
vt 0.2291 0.5166 0.0000
vt 0.2291 0.4994 0.0000
vt 0.4482 0.4994 0.0000
vt 0.4482 0.5489 0.0000
vt 0.2291 0.5489 0.0000
vt 0.2291 0.5317 0.0000
vt 0.4482 0.5317 0.0000
vt 0.4482 0.5963 0.0000
vt 0.2291 0.5963 0.0000
vt 0.2291 0.5791 0.0000
vt 0.4482 0.5791 0.0000
vt 0.4482 0.8181 0.0000
vt 0.6673 0.8181 0.0000
vt 0.6673 0.8428 0.0000
vt 0.4482 0.8428 0.0000
vt 0.4482 0.7707 0.0000
vt 0.6673 0.7707 0.0000
vt 0.6673 0.7879 0.0000
vt 0.4482 0.7879 0.0000
vt 0.4482 0.7384 0.0000
vt 0.6673 0.7384 0.0000
vt 0.6673 0.7556 0.0000
vt 0.4482 0.7556 0.0000
vt 0.4482 0.6910 0.0000
vt 0.6673 0.6910 0.0000
vt 0.6673 0.7082 0.0000
vt 0.4482 0.7082 0.0000
vt 0.4482 0.6587 0.0000
vt 0.6673 0.6587 0.0000
vt 0.6673 0.6759 0.0000
vt 0.4482 0.6759 0.0000
vt 0.0100 0.6114 0.0000
vt 0.0100 0.4692 0.0000
vt 0.0100 0.4445 0.0000
vt 0.0100 0.5166 0.0000
vt 0.0100 0.4994 0.0000
vt 0.0100 0.5489 0.0000
vt 0.0100 0.5317 0.0000
vt 0.0100 0.5963 0.0000
vt 0.0100 0.5791 0.0000
vt 0.8864 0.8181 0.0000
vt 0.8864 0.8428 0.0000
vt 0.8864 0.7707 0.0000
vt 0.8864 0.7879 0.0000
vt 0.8864 0.7384 0.0000
vt 0.8864 0.7556 0.0000
vt 0.8864 0.6910 0.0000
vt 0.8864 0.7082 0.0000
vt 0.8864 0.6587 0.0000
vt 0.8864 0.6759 0.0000
vt 0.1774 0.8868 0.0000
vt 0.1946 0.8767 0.0000
vt 0.1952 0.8788 0.0000
vt 0.1780 0.8889 0.0000
vt 0.6673 0.9608 0.0000
vt 0.8864 0.9608 0.0000
vt 0.8864 0.9627 0.0000
vt 0.6673 0.9627 0.0000
vt 0.0100 0.8915 0.0000
vt 0.0353 0.8767 0.0000
vt 0.0358 0.8788 0.0000
vt 0.0111 0.8934 0.0000
vt 0.0666 0.8767 0.0000
vt 0.0838 0.8868 0.0000
vt 0.0832 0.8889 0.0000
vt 0.0661 0.8788 0.0000
vt 0.0978 0.8868 0.0000
vt 0.1149 0.8767 0.0000
vt 0.1155 0.8788 0.0000
vt 0.0983 0.8889 0.0000
vt 0.1463 0.8767 0.0000
vt 0.1635 0.8868 0.0000
vt 0.1629 0.8889 0.0000
vt 0.1457 0.8788 0.0000
vt 0.6673 0.9881 0.0000
vt 0.8864 0.9881 0.0000
vt 0.8864 0.9900 0.0000
vt 0.6673 0.9900 0.0000
vt 0.0100 0.9335 0.0000
vt 0.0353 0.9188 0.0000
vt 0.0358 0.9209 0.0000
vt 0.0111 0.9354 0.0000
vt 0.0666 0.9188 0.0000
vt 0.0838 0.9289 0.0000
vt 0.0832 0.9310 0.0000
vt 0.0661 0.9209 0.0000
vt 0.0978 0.9289 0.0000
vt 0.1149 0.9188 0.0000
vt 0.1155 0.9209 0.0000
vt 0.0983 0.9310 0.0000
vt 0.1463 0.9188 0.0000
vt 0.1635 0.9289 0.0000
vt 0.1629 0.9310 0.0000
vt 0.1457 0.9209 0.0000
vt 0.1774 0.9289 0.0000
vt 0.1946 0.9188 0.0000
vt 0.1952 0.9209 0.0000
vt 0.1780 0.9310 0.0000
vt 0.2260 0.9188 0.0000
vt 0.2254 0.9209 0.0000
vt 0.2291 0.9608 0.0000
vt 0.4482 0.9608 0.0000
vt 0.4482 0.9627 0.0000
vt 0.2291 0.9627 0.0000
vt 0.2291 0.9881 0.0000
vt 0.4482 0.9881 0.0000
vt 0.4482 0.9900 0.0000
vt 0.2291 0.9900 0.0000
vt 0.2432 0.9289 0.0000
vt 0.2426 0.9310 0.0000
vt 0.3853 0.9188 0.0000
vt 0.4106 0.9335 0.0000
vt 0.4095 0.9354 0.0000
vt 0.3847 0.9209 0.0000
vt 0.0100 0.9608 0.0000
vt 0.0100 0.9627 0.0000
vt 0.3368 0.9289 0.0000
vt 0.3540 0.9188 0.0000
vt 0.3545 0.9209 0.0000
vt 0.3374 0.9310 0.0000
vt 0.3057 0.9188 0.0000
vt 0.3228 0.9289 0.0000
vt 0.3223 0.9310 0.0000
vt 0.3051 0.9209 0.0000
vt 0.2571 0.9289 0.0000
vt 0.2743 0.9188 0.0000
vt 0.2749 0.9209 0.0000
vt 0.2577 0.9310 0.0000
vt 0.3853 0.8767 0.0000
vt 0.4106 0.8915 0.0000
vt 0.4095 0.8934 0.0000
vt 0.3847 0.8788 0.0000
vt 0.0100 0.9881 0.0000
vt 0.0100 0.9900 0.0000
vt 0.3368 0.8868 0.0000
vt 0.3540 0.8767 0.0000
vt 0.3545 0.8788 0.0000
vt 0.3374 0.8889 0.0000
vt 0.3057 0.8767 0.0000
vt 0.3228 0.8868 0.0000
vt 0.3223 0.8889 0.0000
vt 0.3051 0.8788 0.0000
vt 0.2571 0.8868 0.0000
vt 0.2743 0.8767 0.0000
vt 0.2749 0.8788 0.0000
vt 0.2577 0.8889 0.0000
vt 0.2260 0.8767 0.0000
vt 0.2432 0.8868 0.0000
vt 0.2426 0.8889 0.0000
vt 0.2254 0.8788 0.0000
# 300 texture coords

g sheet
s 1
f 1/1/1 2/2/1 3/3/1 4/4/1 
f 5/5/2 6/6/2 7/7/2 8/8/2 
f 9/9/3 10/10/3 11/11/3 12/12/3 
f 13/13/1 14/14/1 15/15/1 16/16/1 
f 17/17/3 18/18/3 19/19/3 20/20/3 
f 21/21/4 22/22/4 23/23/4 24/24/4 
f 25/25/1 26/26/1 27/27/1 28/28/1 
f 29/29/3 30/30/3 31/31/3 32/32/3 
f 33/33/1 34/34/1 35/35/1 36/36/1 
f 37/37/3 38/38/3 39/39/3 40/40/3 
s 2
f 8/8/5 7/7/5 10/10/5 9/9/5 
f 16/16/5 15/15/5 18/18/5 17/17/5 
f 24/24/5 23/23/5 26/26/5 25/25/5 
f 32/32/5 31/31/5 34/34/5 33/33/5 
f 40/40/5 39/39/5 41/41/5 42/42/5 
s 1
f 43/43/1 41/41/1 44/44/1 45/45/1 
f 46/46/2 47/47/2 48/48/2 49/49/2 
f 50/50/3 51/51/3 52/52/3 53/53/3 
f 54/54/1 55/55/1 56/56/1 57/57/1 
f 58/58/3 59/59/3 60/60/3 61/61/3 
f 62/62/4 63/63/4 64/64/4 65/65/4 
f 66/66/1 67/67/1 68/68/1 69/69/1 
f 70/70/3 71/71/3 72/72/3 73/73/3 
f 74/74/1 75/75/1 76/76/1 77/77/1 
f 78/78/3 79/79/3 80/80/3 81/81/3 
s 2
f 47/47/5 50/50/5 53/53/5 48/48/5 
f 55/55/5 58/58/5 61/61/5 56/56/5 
f 63/63/5 66/66/5 69/69/5 64/64/5 
f 71/71/5 74/74/5 77/77/5 72/72/5 
f 79/79/5 3/3/5 44/44/5 80/80/5 
s 1
f 65/65/4 64/64/4 23/23/4 22/22/4 
f 69/69/1 68/68/1 27/27/1 26/26/1 
f 73/73/3 72/72/3 31/31/3 30/30/3 
f 77/77/1 76/76/1 35/35/1 34/34/1 
f 81/81/3 80/80/3 39/39/3 38/38/3 
s 2
f 64/64/5 69/69/5 26/26/5 23/23/5 
f 72/72/5 77/77/5 34/34/5 31/31/5 
f 80/80/5 44/44/5 41/41/5 39/39/5 
s 1
f 82/82/1 42/42/1 41/41/1 43/43/1 
f 83/83/2 84/84/2 47/47/2 46/46/2 
f 85/85/3 86/86/3 51/51/3 50/50/3 
f 87/87/1 88/88/1 55/55/1 54/54/1 
f 89/89/3 90/90/3 59/59/3 58/58/3 
s 2
f 84/84/5 85/85/5 50/50/5 47/47/5 
f 88/88/5 89/89/5 58/58/5 55/55/5 
s 1
f 45/45/1 44/44/1 3/3/1 2/2/1 
f 49/49/2 48/48/2 7/7/2 6/6/2 
f 53/53/3 52/52/3 11/11/3 10/10/3 
f 57/57/1 56/56/1 15/15/1 14/14/1 
f 61/61/3 60/60/3 19/19/3 18/18/3 
s 2
f 48/48/5 53/53/5 10/10/5 7/7/5 
f 56/56/5 61/61/5 18/18/5 15/15/5 
s 1
f 91/91/4 92/92/4 63/63/4 62/62/4 
f 93/93/1 94/94/1 67/67/1 66/66/1 
f 95/95/3 96/96/3 71/71/3 70/70/3 
f 97/97/1 98/98/1 75/75/1 74/74/1 
f 99/99/3 100/100/3 79/79/3 78/78/3 
s 2
f 92/92/5 93/93/5 66/66/5 63/63/5 
f 96/96/5 97/97/5 74/74/5 71/71/5 
f 100/100/5 4/4/5 3/3/5 79/79/5 
f 13/13/5 12/12/5 11/11/5 14/14/5 
f 1/1/5 20/20/5 19/19/5 2/2/5 
f 29/29/5 28/28/5 27/27/5 30/30/5 
f 37/37/5 36/36/5 35/35/5 38/38/5 
f 73/73/5 68/68/5 67/67/5 70/70/5 
f 81/81/5 76/76/5 75/75/5 78/78/5 
f 45/45/5 60/60/5 59/59/5 43/43/5 
f 57/57/5 52/52/5 51/51/5 54/54/5 
f 30/30/5 27/27/5 68/68/5 73/73/5 
f 38/38/5 35/35/5 76/76/5 81/81/5 
f 43/43/5 59/59/5 90/90/5 82/82/5 
f 54/54/5 51/51/5 86/86/5 87/87/5 
f 70/70/5 67/67/5 94/94/5 95/95/5 
f 78/78/5 75/75/5 98/98/5 99/99/5 
f 2/2/5 19/19/5 60/60/5 45/45/5 
f 14/14/5 11/11/5 52/52/5 57/57/5 
s 1
f 101/101/6 102/102/6 103/103/6 104/104/6 
f 105/105/6 106/106/6 107/107/6 108/108/6 
f 109/109/7 110/110/7 111/111/7 112/112/7 
f 113/113/6 114/114/6 115/115/6 116/116/6 
f 117/117/7 118/118/7 119/119/7 120/120/7 
f 121/121/7 122/122/7 123/123/7 124/124/7 
f 125/125/6 126/126/6 127/127/6 128/128/6 
f 129/129/7 130/130/7 131/131/7 132/132/7 
f 133/133/6 134/134/6 135/135/6 136/136/6 
f 137/137/7 138/138/7 139/139/7 140/140/7 
s 2
f 110/110/8 105/105/8 108/108/8 111/111/8 
f 118/118/8 113/113/8 116/116/8 119/119/8 
f 126/126/8 121/121/8 124/124/8 127/127/8 
f 134/134/8 129/129/8 132/132/8 135/135/8 
f 141/141/8 137/137/8 140/140/8 142/142/8 
s 1
f 143/143/6 141/141/6 144/144/6 145/145/6 
f 146/146/6 147/147/6 148/148/6 149/149/6 
f 150/150/7 151/151/7 152/152/7 153/153/7 
f 154/154/6 155/155/6 156/156/6 157/157/6 
f 158/158/7 159/159/7 160/160/7 161/161/7 
f 162/162/7 163/163/7 164/164/7 165/165/7 
f 166/166/6 167/167/6 168/168/6 169/169/6 
f 170/170/7 171/171/7 172/172/7 173/173/7 
f 174/174/6 175/175/6 176/176/6 177/177/6 
f 178/178/7 179/179/7 180/180/7 181/181/7 
s 2
f 153/153/8 152/152/8 147/147/8 146/146/8 
f 161/161/8 160/160/8 155/155/8 154/154/8 
f 169/169/8 168/168/8 163/163/8 162/162/8 
f 177/177/8 176/176/8 171/171/8 170/170/8 
f 143/143/8 101/101/8 179/179/8 178/178/8 
s 1
f 121/121/7 162/162/7 165/165/7 122/122/7 
f 125/125/6 166/166/6 169/169/6 126/126/6 
f 129/129/7 170/170/7 173/173/7 130/130/7 
f 133/133/6 174/174/6 177/177/6 134/134/6 
f 137/137/7 178/178/7 181/181/7 138/138/7 
s 2
f 126/126/8 169/169/8 162/162/8 121/121/8 
f 134/134/8 177/177/8 170/170/8 129/129/8 
f 141/141/8 143/143/8 178/178/8 137/137/8 
s 1
f 141/141/6 142/142/6 182/182/6 144/144/6 
f 147/147/6 183/183/6 184/184/6 148/148/6 
f 151/151/7 185/185/7 186/186/7 152/152/7 
f 155/155/6 187/187/6 188/188/6 156/156/6 
f 159/159/7 189/189/7 190/190/7 160/160/7 
s 2
f 152/152/8 186/186/8 183/183/8 147/147/8 
f 160/160/8 190/190/8 187/187/8 155/155/8 
s 1
f 101/101/6 143/143/6 145/145/6 102/102/6 
f 105/105/6 146/146/6 149/149/6 106/106/6 
f 109/109/7 150/150/7 153/153/7 110/110/7 
f 113/113/6 154/154/6 157/157/6 114/114/6 
f 117/117/7 158/158/7 161/161/7 118/118/7 
s 2
f 110/110/8 153/153/8 146/146/8 105/105/8 
f 118/118/8 161/161/8 154/154/8 113/113/8 
s 1
f 163/163/7 191/191/7 192/192/7 164/164/7 
f 167/167/6 193/193/6 194/194/6 168/168/6 
f 171/171/7 195/195/7 196/196/7 172/172/7 
f 175/175/6 197/197/6 198/198/6 176/176/6 
f 179/179/7 199/199/7 200/200/7 180/180/7 
s 2
f 168/168/8 194/194/8 191/191/8 163/163/8 
f 176/176/8 198/198/8 195/195/8 171/171/8 
f 101/101/8 104/104/8 199/199/8 179/179/8 
f 109/109/8 112/112/8 115/115/8 114/114/8 
f 117/117/8 120/120/8 103/103/8 102/102/8 
f 125/125/8 128/128/8 131/131/8 130/130/8 
f 133/133/8 136/136/8 139/139/8 138/138/8 
f 167/167/8 166/166/8 173/173/8 172/172/8 
f 175/175/8 174/174/8 181/181/8 180/180/8 
f 159/159/8 158/158/8 145/145/8 144/144/8 
f 151/151/8 150/150/8 157/157/8 156/156/8 
f 166/166/8 125/125/8 130/130/8 173/173/8 
f 174/174/8 133/133/8 138/138/8 181/181/8 
f 189/189/8 159/159/8 144/144/8 182/182/8 
f 185/185/8 151/151/8 156/156/8 188/188/8 
f 193/193/8 167/167/8 172/172/8 196/196/8 
f 197/197/8 175/175/8 180/180/8 200/200/8 
f 158/158/8 117/117/8 102/102/8 145/145/8 
f 150/150/8 109/109/8 114/114/8 157/157/8 
s 4
f 1/201/9 4/202/9 104/203/9 103/204/9 
s 2
f 6/205/10 5/206/10 107/207/10 106/208/10 
s 4
f 5/209/9 8/210/9 108/211/9 107/212/9 
f 9/213/9 12/214/9 112/215/9 111/216/9 
f 13/217/9 16/218/9 116/219/9 115/220/9 
f 17/221/9 20/222/9 120/223/9 119/224/9 
s 2
f 22/225/11 21/226/11 123/227/11 122/228/11 
s 4
f 21/229/12 24/230/12 124/231/12 123/232/12 
f 25/233/12 28/234/12 128/235/12 127/236/12 
f 29/237/12 32/238/12 132/239/12 131/240/12 
f 33/241/12 36/242/12 136/243/12 135/244/12 
f 37/245/12 40/246/12 140/247/12 139/248/12 
f 8/210/9 9/213/9 111/216/9 108/211/9 
f 16/218/9 17/221/9 119/224/9 116/219/9 
f 24/230/12 25/233/12 127/236/12 124/231/12 
f 32/238/12 33/241/12 135/244/12 132/239/12 
f 40/246/12 42/249/12 142/250/12 140/247/12 
s 2
f 46/251/10 49/252/10 149/253/10 148/254/10 
f 62/255/11 65/256/11 165/257/11 164/258/11 
f 65/256/11 22/225/11 122/228/11 165/257/11 
s 4
f 42/249/12 82/259/12 182/260/12 142/250/12 
f 84/261/12 83/262/12 184/263/12 183/264/12 
s 2
f 83/265/10 46/251/10 148/254/10 184/266/10 
s 4
f 86/267/12 85/268/12 186/269/12 185/270/12 
f 88/271/12 87/272/12 188/273/12 187/274/12 
f 90/275/12 89/276/12 190/277/12 189/278/12 
f 85/268/12 84/261/12 183/264/12 186/269/12 
f 89/276/12 88/271/12 187/274/12 190/277/12 
s 2
f 49/252/10 6/205/10 106/208/10 149/253/10 
s 4
f 92/279/9 91/280/9 192/281/9 191/282/9 
s 2
f 91/283/11 62/255/11 164/258/11 192/284/11 
s 4
f 94/285/9 93/286/9 194/287/9 193/288/9 
f 96/289/9 95/290/9 196/291/9 195/292/9 
f 98/293/9 97/294/9 198/295/9 197/296/9 
f 100/297/9 99/298/9 200/299/9 199/300/9 
f 93/286/9 92/279/9 191/282/9 194/287/9 
f 97/294/9 96/289/9 195/292/9 198/295/9 
f 4/202/9 100/297/9 199/300/9 104/203/9 
f 12/214/9 13/217/9 115/220/9 112/215/9 
f 20/222/9 1/201/9 103/204/9 120/223/9 
f 28/234/12 29/237/12 131/240/12 128/235/12 
f 36/242/12 37/245/12 139/248/12 136/243/12 
f 82/259/12 90/275/12 189/278/12 182/260/12 
f 87/272/12 86/267/12 185/270/12 188/273/12 
f 95/290/9 94/285/9 193/288/9 196/291/9 
f 99/298/9 98/293/9 197/296/9 200/299/9 
# 198 polygons

