# 3ds Max Wavefront OBJ Exporter v0.97b - (c)2007 guruware
# File Created: 13.12.2016 15:02:59

#
# object fence
#

v  0.2041 0.6571 -0.0505
v  0.0759 0.6571 -0.0505
v  0.0759 0.6571 0.0505
v  0.2041 0.6571 0.0505
v  0.2041 0.6571 -0.8505
v  0.0759 0.6571 -0.8505
v  0.0759 0.6571 -0.7495
v  0.2041 0.6571 -0.7495
v  0.0759 0.6571 0.8505
v  0.2041 0.6571 0.8505
v  0.2041 0.6571 0.7495
v  0.0759 0.6571 0.7495
v  -0.1100 -0.1131 -0.0505
v  -0.1100 -0.0011 -0.0505
v  -0.1100 -0.0011 0.0505
v  -0.1100 -0.1131 0.0505
v  -0.2100 -0.1131 0.0505
v  -0.2100 -0.0011 0.0505
v  -0.2100 -0.0011 -0.0505
v  -0.2100 -0.1131 -0.0505
v  -0.2100 -0.1131 -0.8505
v  -0.2100 -0.0011 -0.8505
v  -0.1100 -0.0011 -0.8505
v  -0.1100 -0.1131 -0.8505
v  -0.2100 -0.1131 -0.7495
v  -0.2100 -0.0011 -0.7495
v  -0.1100 -0.0011 -0.7495
v  -0.1100 -0.1131 -0.7495
v  -0.1100 -0.1131 0.8505
v  -0.1100 -0.0011 0.8505
v  -0.2100 -0.0011 0.8505
v  -0.2100 -0.1131 0.8505
v  -0.1100 -0.1131 0.7495
v  -0.1100 -0.0011 0.7495
v  -0.2100 -0.1131 0.7495
v  -0.2100 -0.0011 0.7495
v  0.2100 0.5429 0.0505
v  0.2100 0.5429 -0.0505
v  0.0700 0.5429 -0.0505
v  0.0700 0.5429 0.0505
v  0.1902 0.6431 -1.0005
v  0.1902 0.5428 -1.0005
v  0.0898 0.5428 -1.0005
v  0.0898 0.6431 -1.0005
v  0.0700 0.5429 -0.8505
v  0.0700 0.5429 -0.7495
v  0.2100 0.5429 -0.7495
v  0.2100 0.5429 -0.8505
v  0.0899 0.6434 1.0005
v  0.0899 0.5425 1.0005
v  0.1901 0.5425 1.0005
v  0.1901 0.6434 1.0005
v  0.2100 0.5429 0.8505
v  0.2100 0.5429 0.7495
v  0.0700 0.5429 0.7495
v  0.0700 0.5429 0.8505
v  0.1900 0.5429 -0.0505
v  0.1900 0.5429 0.0505
v  -0.1100 -0.6571 0.0505
v  -0.1100 -0.6571 -0.0505
v  0.0900 0.5429 -0.0505
v  -0.2100 -0.6571 -0.0505
v  0.0900 0.5429 0.0505
v  -0.2100 -0.6571 0.0505
v  0.0900 0.5429 -0.8505
v  0.1900 0.5429 -0.8505
v  -0.1100 -0.6571 -0.8505
v  -0.2100 -0.6571 -0.8505
v  0.0900 0.5429 -0.7495
v  -0.2100 -0.6571 -0.7495
v  0.1900 0.5429 -0.7495
v  -0.1100 -0.6571 -0.7495
v  0.1900 0.5429 0.8505
v  0.0900 0.5429 0.8505
v  -0.1100 -0.6571 0.8505
v  -0.2100 -0.6571 0.8505
v  0.1900 0.5429 0.7495
v  -0.1100 -0.6571 0.7495
v  0.0900 0.5429 0.7495
v  -0.2100 -0.6571 0.7495
v  0.1900 0.6429 0.7495
v  0.1900 0.6429 0.0505
v  0.0900 0.6429 0.0505
v  0.0900 0.6429 0.7495
v  0.0900 0.6429 -0.7495
v  0.0900 0.6429 -0.0505
v  0.1900 0.6429 -0.0505
v  0.1900 0.6429 -0.7495
v  0.0900 0.5429 -0.9501
v  0.1900 0.5429 -0.9501
v  0.1900 0.5429 -0.8509
v  0.0900 0.5429 -0.8509
v  0.0900 0.6429 -0.9501
v  0.0900 0.6429 -0.8509
v  0.1900 0.6429 -0.9501
v  0.1900 0.6429 -0.8509
v  0.1900 0.5429 0.9501
v  0.0900 0.5429 0.9501
v  0.0900 0.5429 0.8509
v  0.1900 0.5429 0.8509
v  0.1900 0.6429 0.9501
v  0.1900 0.6429 0.8509
v  0.0900 0.6429 0.9501
v  0.0900 0.6429 0.8509
v  0.1900 0.6429 -0.8505
v  0.0900 0.6429 -0.8505
v  0.0900 0.6429 0.8505
v  0.1900 0.6429 0.8505
v  0.0772 0.5302 -0.9505
v  0.2028 0.5302 -0.9505
v  0.1900 0.5429 -0.9505
v  0.0900 0.5429 -0.9505
v  0.0900 0.6429 -0.9505
v  0.0772 0.6557 -0.9505
v  0.1900 0.6429 -0.9505
v  0.2028 0.6557 -0.9505
v  0.1900 0.5429 0.9505
v  0.2026 0.5298 0.9505
v  0.0774 0.5298 0.9505
v  0.0900 0.5429 0.9505
v  0.1900 0.6429 0.9505
v  0.2026 0.6561 0.9505
v  0.0774 0.6561 0.9505
v  0.0900 0.6429 0.9505
v  -0.3100 -0.6571 1.0000
v  -0.3100 -0.7571 1.0000
v  -0.0162 -0.7571 1.0000
v  -0.0100 -0.7571 1.0000
v  -0.0100 -0.6571 1.0000
v  -0.3100 -0.7571 -1.0000
v  -0.3100 -0.6571 -1.0000
v  -0.0100 -0.6571 -1.0000
v  -0.0100 -0.7571 -1.0000
v  -0.0162 -0.7571 -1.0000
# 134 vertices

vn 0.5610 0.5905 -0.5801
vn -0.5610 0.5905 -0.5801
vn -0.5610 0.5905 0.5801
vn 0.5610 0.5905 0.5801
vn 0.9045 -0.3015 -0.3015
vn 0.8968 0.1613 -0.4119
vn 0.8968 0.1613 0.4119
vn 0.9045 -0.3015 0.3015
vn -0.9045 -0.3015 0.3015
vn -0.8698 0.4485 0.2054
vn -0.8698 0.4485 -0.2054
vn -0.9045 -0.3015 -0.3015
vn -0.7071 0.0000 -0.7071
vn -0.7317 0.1884 -0.6551
vn 0.6205 -0.1598 -0.7678
vn 0.7071 0.0000 -0.7071
vn 0.7071 0.0000 0.7071
vn 0.6205 -0.1598 0.7678
vn -0.7317 0.1884 0.6551
vn -0.7071 0.0000 0.7071
vn 0.5933 -0.5636 0.5747
vn 0.5933 -0.5636 -0.5747
vn -0.5933 -0.5636 -0.5747
vn -0.5933 -0.5636 0.5747
vn 0.5026 0.5027 -0.7034
vn 0.5026 -0.5027 -0.7034
vn -0.5026 -0.5027 -0.7034
vn -0.5026 0.5027 -0.7034
vn -0.5029 0.5021 0.7036
vn -0.5029 -0.5021 0.7036
vn 0.5029 -0.5021 0.7036
vn 0.5029 0.5021 0.7036
vn 0.5305 -0.7022 -0.4749
vn 0.5305 -0.7022 0.4749
vn -0.5603 -0.4532 -0.6933
vn -0.5603 -0.4532 0.6933
vn 0.3015 0.3015 -0.9045
vn 0.3015 0.3015 0.9045
vn -0.3015 0.3015 0.9045
vn -0.3015 0.3015 -0.9045
vn -0.7071 -0.7071 -0.0000
vn 0.7071 -0.7071 -0.0000
vn -0.7071 0.7071 -0.0000
vn 0.7071 0.7071 -0.0000
vn -0.6315 -0.6314 0.4500
vn 0.6315 -0.6314 0.4500
vn 0.3015 -0.3015 0.9045
vn -0.3015 -0.3015 0.9045
vn -0.6315 0.6314 0.4500
vn 0.6315 0.6314 0.4500
vn 0.3015 -0.3015 -0.9045
vn 0.6312 -0.6318 -0.4498
vn -0.6312 -0.6318 -0.4498
vn -0.3015 -0.3015 -0.9045
vn 0.6312 0.6318 -0.4498
vn -0.6312 0.6318 -0.4498
vn -0.5774 0.5774 0.5774
vn 0.0000 0.0000 1.0000
vn 0.5774 0.5774 0.5774
vn -0.5774 0.5774 -0.5774
vn 0.5774 0.5774 -0.5774
vn 0.0000 0.0000 -1.0000
# 62 vertex normals

vt 0.3812 0.7969 0.0000
vt 0.3812 0.7589 0.0000
vt 0.4111 0.7589 0.0000
vt 0.4111 0.7969 0.0000
vt 0.5461 0.5817 0.0000
vt 0.5461 0.6197 0.0000
vt 0.5161 0.6197 0.0000
vt 0.5161 0.5817 0.0000
vt 0.9056 0.2189 0.0000
vt 0.9056 0.2568 0.0000
vt 0.8758 0.2568 0.0000
vt 0.8758 0.2189 0.0000
vt 0.2716 0.1648 0.0000
vt 0.2716 0.1983 0.0000
vt 0.2414 0.1983 0.0000
vt 0.2414 0.1648 0.0000
vt 0.3323 0.1648 0.0000
vt 0.3323 0.1983 0.0000
vt 0.3015 0.1983 0.0000
vt 0.3015 0.1648 0.0000
vt 0.2681 0.5407 0.0000
vt 0.2708 0.5743 0.0000
vt 0.2408 0.5744 0.0000
vt 0.2382 0.5409 0.0000
vt 0.3009 0.5409 0.0000
vt 0.3011 0.5742 0.0000
vt 0.2106 0.5745 0.0000
vt 0.2105 0.5412 0.0000
vt 0.6010 0.1648 0.0000
vt 0.6010 0.1983 0.0000
vt 0.5711 0.1983 0.0000
vt 0.5711 0.1648 0.0000
vt 0.0020 0.1648 0.0000
vt 0.0322 0.1648 0.0000
vt 0.0322 0.1983 0.0000
vt 0.0020 0.1983 0.0000
vt 0.5414 0.1648 0.0000
vt 0.5414 0.1983 0.0000
vt 0.4111 0.8307 0.0000
vt 0.3812 0.8307 0.0000
vt 0.3812 0.7251 0.0000
vt 0.4111 0.7251 0.0000
vt 0.1405 0.8261 0.0000
vt 0.1405 0.7962 0.0000
vt 0.1705 0.7962 0.0000
vt 0.1705 0.8261 0.0000
vt 0.5461 0.6525 0.0000
vt 0.5161 0.6525 0.0000
vt 0.5161 0.5478 0.0000
vt 0.5461 0.5478 0.0000
vt 0.0594 0.4169 0.0000
vt 0.0594 0.3868 0.0000
vt 0.0892 0.3868 0.0000
vt 0.0892 0.4169 0.0000
vt 0.9056 0.2905 0.0000
vt 0.8758 0.2905 0.0000
vt 0.8758 0.1852 0.0000
vt 0.9056 0.1852 0.0000
vt 0.2716 0.3611 0.0000
vt 0.2414 0.3611 0.0000
vt 0.2414 0.0020 0.0000
vt 0.2716 0.0020 0.0000
vt 0.8717 0.0020 0.0000
vt 0.8421 0.0020 0.0000
vt 0.9308 0.1628 0.0000
vt 0.9603 0.1628 0.0000
vt 0.3015 0.0020 0.0000
vt 0.3317 0.3611 0.0000
vt 0.3015 0.3611 0.0000
vt 0.3317 0.0020 0.0000
vt 0.7073 0.1793 0.0000
vt 0.7369 0.1793 0.0000
vt 0.8256 0.3401 0.0000
vt 0.7960 0.3401 0.0000
vt 0.3617 0.0020 0.0000
vt 0.3617 0.1648 0.0000
vt 0.0907 0.7546 0.0000
vt 0.1202 0.7546 0.0000
vt 0.0316 0.9154 0.0000
vt 0.0020 0.9154 0.0000
vt 0.2374 0.3777 0.0000
vt 0.2674 0.3776 0.0000
vt 0.3019 0.7372 0.0000
vt 0.2716 0.7374 0.0000
vt 0.3002 0.3778 0.0000
vt 0.3475 0.5419 0.0000
vt 0.3770 0.5419 0.0000
vt 0.4657 0.7026 0.0000
vt 0.4361 0.7026 0.0000
vt 0.3309 0.5408 0.0000
vt 0.3301 0.3777 0.0000
vt 0.2416 0.7379 0.0000
vt 0.2112 0.7380 0.0000
vt 0.2096 0.3782 0.0000
vt 0.6908 0.3611 0.0000
vt 0.6609 0.3611 0.0000
vt 0.1223 0.0020 0.0000
vt 0.1223 0.1648 0.0000
vt 0.0924 0.1648 0.0000
vt 0.0924 0.0020 0.0000
vt 0.2796 0.7546 0.0000
vt 0.2477 0.7546 0.0000
vt 0.2477 0.9264 0.0000
vt 0.2796 0.9264 0.0000
vt 0.0020 0.0020 0.0000
vt 0.0322 0.0020 0.0000
vt 0.7369 0.0020 0.0000
vt 0.7073 0.0020 0.0000
vt 0.7960 0.1628 0.0000
vt 0.8256 0.1628 0.0000
vt 0.0621 0.1648 0.0000
vt 0.0621 0.0020 0.0000
vt 0.5711 0.3611 0.0000
vt 0.5409 0.3611 0.0000
vt 0.5409 0.2282 0.0000
vt 0.3317 0.2282 0.0000
vt 0.8031 0.5419 0.0000
vt 0.5965 0.5419 0.0000
vt 0.5965 0.5714 0.0000
vt 0.8031 0.5714 0.0000
vt 0.0021 0.5114 0.0000
vt 0.2106 0.5114 0.0000
vt 0.0022 0.5412 0.0000
vt 0.0020 0.6044 0.0000
vt 0.2107 0.6044 0.0000
vt 0.2106 0.6377 0.0000
vt 0.0021 0.6378 0.0000
vt 0.0021 0.5745 0.0000
vt 0.2086 0.2752 0.0000
vt 0.0020 0.2752 0.0000
vt 0.0020 0.2456 0.0000
vt 0.2086 0.2456 0.0000
vt 0.0020 0.2161 0.0000
vt 0.2086 0.2161 0.0000
vt 0.2086 0.3343 0.0000
vt 0.0020 0.3343 0.0000
vt 0.0020 0.3048 0.0000
vt 0.2086 0.3048 0.0000
vt 0.3829 0.0316 0.0000
vt 0.5895 0.0316 0.0000
vt 0.5895 0.0611 0.0000
vt 0.3829 0.0611 0.0000
vt 0.5895 0.0907 0.0000
vt 0.3829 0.0907 0.0000
vt 0.5895 0.1202 0.0000
vt 0.3829 0.1202 0.0000
vt 0.3829 0.0020 0.0000
vt 0.5895 0.0020 0.0000
vt 0.1431 0.0316 0.0000
vt 0.1431 0.0020 0.0000
vt 0.1724 0.0020 0.0000
vt 0.1724 0.0316 0.0000
vt 0.1431 0.0611 0.0000
vt 0.1724 0.0611 0.0000
vt 0.1431 0.0907 0.0000
vt 0.1724 0.0907 0.0000
vt 0.1431 0.1202 0.0000
vt 0.1724 0.1202 0.0000
vt 0.6353 0.0907 0.0000
vt 0.6353 0.1202 0.0000
vt 0.6060 0.1202 0.0000
vt 0.6060 0.0907 0.0000
vt 0.6353 0.0611 0.0000
vt 0.6060 0.0611 0.0000
vt 0.6353 0.0316 0.0000
vt 0.6060 0.0316 0.0000
vt 0.6353 0.0020 0.0000
vt 0.6060 0.0020 0.0000
vt 0.3812 0.8366 0.0000
vt 0.4092 0.8366 0.0000
vt 0.3771 0.7927 0.0000
vt 0.3475 0.7986 0.0000
vt 0.3475 0.7927 0.0000
vt 0.3771 0.7631 0.0000
vt 0.3475 0.7572 0.0000
vt 0.3475 0.7631 0.0000
vt 0.4092 0.7192 0.0000
vt 0.3812 0.7192 0.0000
vt 0.4153 0.7631 0.0000
vt 0.4449 0.7572 0.0000
vt 0.4449 0.7631 0.0000
vt 0.4153 0.7927 0.0000
vt 0.4449 0.7986 0.0000
vt 0.4449 0.7927 0.0000
vt 0.5161 0.6584 0.0000
vt 0.5461 0.6584 0.0000
vt 0.5119 0.6155 0.0000
vt 0.4822 0.6215 0.0000
vt 0.4822 0.6155 0.0000
vt 0.5119 0.5859 0.0000
vt 0.4822 0.5799 0.0000
vt 0.4822 0.5859 0.0000
vt 0.5461 0.5419 0.0000
vt 0.5161 0.5419 0.0000
vt 0.5503 0.5859 0.0000
vt 0.5800 0.5799 0.0000
vt 0.5800 0.5859 0.0000
vt 0.5503 0.6155 0.0000
vt 0.5800 0.6215 0.0000
vt 0.5800 0.6155 0.0000
vt 0.8739 0.2964 0.0000
vt 0.9056 0.2964 0.0000
vt 0.8716 0.2526 0.0000
vt 0.8421 0.2585 0.0000
vt 0.8421 0.2526 0.0000
vt 0.8716 0.2231 0.0000
vt 0.8421 0.2172 0.0000
vt 0.8421 0.2231 0.0000
vt 0.9056 0.1793 0.0000
vt 0.8739 0.1793 0.0000
vt 0.9098 0.2231 0.0000
vt 0.9393 0.2172 0.0000
vt 0.9393 0.2231 0.0000
vt 0.9098 0.2526 0.0000
vt 0.9393 0.2585 0.0000
vt 0.9393 0.2526 0.0000
vt 0.1743 0.8787 0.0000
vt 0.1368 0.8787 0.0000
vt 0.1406 0.8749 0.0000
vt 0.1705 0.8749 0.0000
vt 0.1705 0.8449 0.0000
vt 0.1743 0.8411 0.0000
vt 0.1406 0.8449 0.0000
vt 0.1368 0.8411 0.0000
vt 0.0892 0.4655 0.0000
vt 0.0930 0.4695 0.0000
vt 0.0556 0.4695 0.0000
vt 0.0594 0.4655 0.0000
vt 0.0892 0.4357 0.0000
vt 0.0930 0.4318 0.0000
vt 0.0556 0.4318 0.0000
vt 0.0594 0.4357 0.0000
vt 0.2134 0.7869 0.0000
vt 0.2279 0.7919 0.0000
vt 0.2073 0.8233 0.0000
vt 0.1969 0.8119 0.0000
vt 0.2160 0.7570 0.0000
vt 0.2312 0.7546 0.0000
vt 0.0165 0.3776 0.0000
vt 0.0329 0.4026 0.0000
vt 0.0225 0.4139 0.0000
vt 0.0020 0.3826 0.0000
vt 0.1157 0.4026 0.0000
vt 0.1261 0.4139 0.0000
vt 0.1427 0.4073 0.0000
vt 0.1724 0.4073 0.0000
vt 0.1705 0.8450 0.0000
vt 0.1724 0.3776 0.0000
vt 0.1406 0.8450 0.0000
vt 0.1427 0.3776 0.0000
vt 0.0483 0.6863 0.0000
vt 0.0780 0.6863 0.0000
vt 0.0317 0.6863 0.0000
vt 0.0020 0.6863 0.0000
vt 0.0483 0.6566 0.0000
vt 0.0020 0.6566 0.0000
vt 0.0780 0.6566 0.0000
vt 0.0317 0.6566 0.0000
vt 0.9683 0.4072 0.0000
vt 0.9980 0.4065 0.0000
vt 0.9980 0.4937 0.0000
vt 0.9980 0.4956 0.0000
vt 0.9683 0.4957 0.0000
vt 0.3770 0.3776 0.0000
vt 0.9683 0.3776 0.0000
vt 0.3770 0.4071 0.0000
vt 0.3770 0.4958 0.0000
vt 0.3475 0.4958 0.0000
vt 0.3475 0.4940 0.0000
vt 0.3475 0.4071 0.0000
vt 0.9683 0.5253 0.0000
vt 0.3770 0.5253 0.0000
# 272 texture coords

g fence
f 1/1/1 2/2/2 3/3/3 4/4/4 
f 5/5/1 6/6/2 7/7/3 8/8/4 
f 9/9/3 10/10/4 11/11/1 12/12/2 
f 13/13/5 14/14/6 15/15/7 16/16/8 
f 17/17/9 18/18/10 19/19/11 20/20/12 
f 21/21/13 22/22/14 23/23/15 24/24/16 
f 25/25/9 26/26/10 22/22/14 21/21/13 
f 24/24/16 23/23/15 27/27/7 28/28/8 
f 29/29/17 30/30/18 31/31/19 32/32/20 
f 29/33/17 33/34/5 34/35/6 30/36/18 
f 35/37/12 32/32/20 31/31/19 36/38/11 
f 4/4/4 37/39/21 38/40/22 1/1/1 
f 2/2/2 39/41/23 40/42/24 3/3/3 
f 41/43/25 42/44/26 43/45/27 44/46/28 
f 6/6/2 45/47/23 46/48/24 7/7/3 
f 8/8/4 47/49/21 48/50/22 5/5/1 
f 49/51/29 50/52/30 51/53/31 52/54/32 
f 10/10/4 53/55/21 54/56/22 11/11/1 
f 12/12/2 55/57/23 56/58/24 9/9/3 
f 15/15/7 14/14/6 57/59/33 58/60/34 
f 16/16/8 59/61/17 60/62/16 13/13/5 
f 14/63/6 19/64/11 61/65/35 57/66/33 
f 20/20/12 13/13/5 60/62/16 62/67/13 
f 18/18/10 63/68/36 61/69/35 19/19/11 
f 20/20/12 62/67/13 64/70/20 17/17/9 
f 18/71/10 15/72/7 58/73/34 63/74/36 
f 59/75/17 16/76/8 17/17/9 64/70/20 
f 23/77/15 22/78/14 65/79/35 66/80/33 
f 21/21/13 24/24/16 67/81/16 68/82/13 
f 26/26/10 69/83/36 65/84/35 22/22/14 
f 21/21/13 68/82/13 70/85/20 25/25/9 
f 26/86/10 27/87/7 71/88/34 69/89/36 
f 28/90/8 25/25/9 70/85/20 72/91/17 
f 27/27/7 23/23/15 66/92/33 71/93/34 
f 28/28/8 72/94/17 67/81/16 24/24/16 
f 30/30/18 73/95/34 74/96/36 31/31/19 
f 75/97/17 29/98/17 32/99/20 76/100/20 
f 30/101/18 34/102/6 77/103/33 73/104/34 
f 33/34/5 29/33/17 75/105/17 78/106/16 
f 34/107/6 36/108/11 79/109/35 77/110/33 
f 35/111/12 33/34/5 78/106/16 80/112/13 
f 31/31/19 74/113/36 79/114/35 36/38/11 
f 35/111/12 80/112/13 76/100/20 32/99/20 
f 18/18/10 36/38/11 34/115/6 15/116/7 
f 17/17/9 35/37/12 36/38/11 18/18/10 
f 16/117/8 33/118/5 35/119/12 17/120/9 
f 15/15/7 34/35/6 33/34/5 16/16/8 
f 20/121/12 25/122/9 28/28/8 13/123/5 
f 19/124/11 26/125/10 25/126/9 20/127/12 
f 14/128/6 27/27/7 26/125/10 19/124/11 
f 13/123/5 28/28/8 27/27/7 14/128/6 
f 81/129/37 82/130/38 83/131/39 84/132/40 
f 84/132/40 83/131/39 63/133/36 79/134/35 
f 79/135/35 63/136/36 58/137/34 77/138/33 
f 77/138/33 58/137/34 82/130/38 81/129/37 
f 85/139/39 86/140/40 87/141/37 88/142/38 
f 88/142/38 87/141/37 57/143/33 71/144/34 
f 71/144/34 57/143/33 61/145/35 69/146/36 
f 69/147/36 61/148/35 86/140/40 85/139/39 
f 89/149/41 90/150/42 91/151/42 92/152/41 
f 93/153/43 89/149/41 92/152/41 94/154/43 
f 95/155/44 93/153/43 94/154/43 96/156/44 
f 90/157/42 95/155/44 96/156/44 91/158/42 
f 97/159/42 98/160/41 99/161/41 100/162/42 
f 101/163/44 97/159/42 100/162/42 102/164/44 
f 103/165/43 101/163/44 102/164/44 104/166/43 
f 98/167/41 103/165/43 104/166/43 99/168/41 
f 57/169/33 38/40/22 37/39/21 58/170/34 
f 87/171/37 1/1/1 38/172/22 57/173/33 
f 2/2/2 1/1/1 87/171/37 86/174/40 
f 39/175/23 2/2/2 86/174/40 61/176/35 
f 63/177/36 40/42/24 39/41/23 61/178/35 
f 83/179/39 3/3/3 40/180/24 63/181/36 
f 82/182/38 4/4/4 3/3/3 83/179/39 
f 37/183/21 4/4/4 82/182/38 58/184/34 
f 69/185/36 46/48/24 45/47/23 65/186/35 
f 85/187/39 7/7/3 46/188/24 69/189/36 
f 88/190/38 8/8/4 7/7/3 85/187/39 
f 47/191/21 8/8/4 88/190/38 71/192/34 
f 66/193/33 48/50/22 47/49/21 71/194/34 
f 105/195/37 5/5/1 48/196/22 66/197/33 
f 6/6/2 5/5/1 105/195/37 106/198/40 
f 45/199/23 6/6/2 106/198/40 65/200/35 
f 77/201/33 54/56/22 53/55/21 73/202/34 
f 81/203/37 11/11/1 54/204/22 77/205/33 
f 12/12/2 11/11/1 81/203/37 84/206/40 
f 55/207/23 12/12/2 84/206/40 79/208/35 
f 74/209/36 56/58/24 55/57/23 79/210/35 
f 107/211/39 9/9/3 56/212/24 74/213/36 
f 108/214/38 10/10/4 9/9/3 107/211/39 
f 53/215/21 10/10/4 108/214/38 73/216/34 
f 109/217/45 110/218/46 111/219/47 112/220/48 
f 113/221/39 114/222/49 109/217/45 112/220/48 
f 115/223/38 116/224/50 114/222/49 113/221/39 
f 110/218/46 116/224/50 115/223/38 111/219/47 
f 117/225/51 118/226/52 119/227/53 120/228/54 
f 121/229/37 122/230/55 118/226/52 117/225/51 
f 123/231/56 122/230/55 121/229/37 124/232/40 
f 119/227/53 123/231/56 124/232/40 120/228/54 
f 42/233/26 110/234/46 109/235/45 43/236/27 
f 43/236/27 109/235/45 114/222/49 44/46/28 
f 44/46/28 114/222/49 116/224/50 41/43/25 
f 41/237/25 116/238/50 110/234/46 42/233/26 
f 51/239/31 50/240/30 119/241/53 118/242/52 
f 52/54/32 51/243/31 118/244/52 122/230/55 
f 52/54/32 122/230/55 123/231/56 49/51/29 
f 49/51/29 123/231/56 119/241/53 50/240/30 
f 89/220/41 112/220/48 111/219/47 90/219/42 
f 91/245/42 66/245/33 65/246/35 92/246/41 
f 93/247/43 113/221/39 112/220/48 89/220/41 
f 92/246/41 65/246/35 106/248/40 94/248/43 
f 95/249/44 115/223/38 113/221/39 93/247/43 
f 94/248/43 106/248/40 105/250/37 96/250/44 
f 90/219/42 111/219/47 115/223/38 95/249/44 
f 96/250/44 105/250/37 66/245/33 91/245/42 
f 97/251/42 117/251/51 120/252/54 98/252/41 
f 99/253/41 74/253/36 73/254/34 100/254/42 
f 101/255/44 121/255/37 117/251/51 97/251/42 
f 100/254/42 73/254/34 108/256/38 102/256/44 
f 103/257/43 124/257/40 121/255/37 101/255/44 
f 102/256/44 108/256/38 107/258/39 104/258/43 
f 98/252/41 120/252/54 124/257/40 103/257/43 
f 104/258/43 107/258/39 74/253/36 99/253/41 
f 125/259/57 126/260/20 127/261/58 128/262/17 
f 125/259/57 128/262/17 129/263/59 
f 130/264/13 126/265/20 125/259/57 131/266/60 
f 125/259/57 129/263/59 132/267/61 131/266/60 
f 132/267/61 133/268/16 134/269/62 130/270/13 
f 131/266/60 132/267/61 130/270/13 
f 132/267/61 129/263/59 128/271/17 133/272/16 
# 128 polygons - 2 triangles

