# 3ds Max Wavefront OBJ Exporter v0.97b - (c)2007 guruware
# File Created: 29.11.2016 13:45:55

#
# object junk__1_
#

v  0.0092 -0.0077 -0.7194
v  0.0150 0.0021 -0.4750
v  -0.1974 0.0025 -0.4455
v  -0.1942 -0.0028 -0.6989
v  0.0105 1.0586 -0.7104
v  -0.0009 1.0062 -0.4849
v  0.2417 1.0265 -0.4851
v  0.2765 1.0661 -0.6760
v  0.0070 0.8201 0.9645
v  0.0029 0.4983 0.9324
v  0.2796 0.4981 1.0020
v  0.2327 0.7986 0.9658
v  0.5178 0.5177 -0.7110
v  0.5026 0.5142 -0.4908
v  0.5012 0.0864 -0.4679
v  0.5229 0.1511 -0.6993
v  0.0008 0.8314 -0.9952
v  0.0014 0.4997 -0.9500
v  -0.2302 0.4994 -0.9355
v  -0.2048 0.8077 -0.9579
v  -0.4602 0.4983 0.7134
v  -0.4422 0.4989 0.4803
v  -0.4481 0.0705 0.4756
v  -0.4842 0.1426 0.6846
v  0.0009 0.0113 -0.8750
v  -0.1947 0.0228 -0.8675
v  -0.0010 -0.0075 0.9626
v  -0.0002 -0.0325 0.7310
v  0.2132 -0.0489 0.7356
v  0.2243 -0.0272 0.9609
v  0.0054 1.0207 -0.8682
v  0.2561 1.0480 -0.8421
v  0.0029 0.9454 0.8886
v  0.0013 0.9640 0.7054
v  -0.1964 0.9656 0.6814
v  -0.1773 0.9364 0.8766
v  0.4761 0.5046 -0.8686
v  0.4691 0.1812 -0.8634
v  0.4381 0.4987 0.9274
v  0.5130 0.4985 0.7694
v  0.4299 0.8003 0.7158
v  0.3716 0.7879 0.8700
v  -0.4514 0.4988 0.9052
v  -0.4535 0.2202 0.8830
v  -0.4394 0.5011 -0.8609
v  -0.5101 0.5014 -0.7196
v  -0.5049 0.8768 -0.7000
v  -0.4376 0.8210 -0.8459
v  0.0071 0.8978 0.9574
v  0.2172 0.8892 0.9481
v  -0.0010 0.0383 1.0065
v  -0.0006 0.0414 1.0071
v  -0.2113 0.1175 1.0402
v  -0.2070 0.0647 1.0262
v  0.5205 0.8040 -0.6396
v  0.4921 0.8553 -0.4773
v  0.4946 0.7755 -0.4751
v  0.5165 0.7382 -0.6574
v  0.5206 0.0533 0.7564
v  0.4908 0.0518 0.4610
v  0.4985 0.0962 0.4622
v  0.5275 0.1022 0.7591
v  0.0025 0.9189 -0.9770
v  -0.1966 0.8814 -0.9578
v  -0.0088 0.0618 -0.9702
v  -0.0048 0.0851 -0.9729
v  0.2079 0.1417 -0.9953
v  0.2011 0.0721 -0.9809
v  -0.4848 0.9164 0.6914
v  -0.4959 0.9532 0.4533
v  -0.5102 0.8944 0.4552
v  -0.5231 0.8318 0.7037
v  -0.4801 0.1117 -0.6701
v  -0.4534 0.1088 -0.4188
v  -0.4775 0.1921 -0.4293
v  -0.5115 0.1938 -0.6826
v  0.5142 0.8479 -0.7566
v  0.5101 0.7609 -0.7945
v  0.4964 0.0632 -0.6941
v  0.4430 0.0832 -0.8542
v  0.4414 0.0523 0.9363
v  0.4428 0.0867 0.9358
v  0.4199 0.8652 0.7028
v  0.3546 0.8689 0.8578
v  -0.4145 0.8629 0.8822
v  -0.4471 0.7673 0.8948
v  -0.4884 0.1027 0.6746
v  -0.4562 0.1270 0.8760
v  -0.4346 0.1074 -0.8481
v  -0.4497 0.1798 -0.8589
v  -0.4972 0.9152 -0.6906
v  -0.4316 0.8838 -0.8359
v  0.3796 -0.0026 -0.6946
v  0.3862 -0.0010 -0.4670
v  0.2377 -0.0149 -0.4729
v  0.2203 -0.0288 -0.7070
v  -0.3835 -0.0144 0.6844
v  -0.3702 0.0361 0.4756
v  -0.2333 0.0209 0.4793
v  -0.2188 -0.0586 0.7071
v  -0.3800 1.0031 -0.6902
v  -0.3939 1.0217 -0.4826
v  -0.2377 1.0375 -0.4845
v  -0.2200 1.0363 -0.7033
v  0.3401 0.9421 0.7020
v  0.3652 0.9719 0.4662
v  0.2240 1.0042 0.4715
v  0.1924 0.9880 0.7082
v  -0.3315 0.7738 0.9699
v  -0.3637 0.4990 0.9739
v  -0.2201 0.4988 0.9818
v  -0.1893 0.7954 0.9902
v  0.2793 0.0638 1.0355
v  0.4083 0.7941 -0.9362
v  0.3690 0.4973 -0.9619
v  0.2301 0.4974 -0.9969
v  0.2258 0.8151 -1.0210
v  -0.3403 0.1622 -0.9544
v  -0.3478 0.4995 -0.9273
v  -0.1953 0.1446 -0.9433
v  0.3525 0.0268 -0.8558
v  0.2046 0.0012 -0.8720
v  -0.3501 0.0287 -0.6771
v  -0.3363 0.0413 -0.8468
v  -0.3615 0.0117 0.9034
v  -0.2052 -0.0275 0.9346
v  0.3989 -0.0228 0.7444
v  0.3576 -0.0096 0.9443
v  -0.3467 0.9517 -0.8357
v  -0.2039 0.9789 -0.8584
v  0.4425 0.9566 -0.6511
v  0.4376 0.9692 -0.7773
v  0.3019 0.9284 0.8546
v  0.1851 0.9541 0.8847
v  -0.3521 0.9650 0.6731
v  -0.3184 0.9196 0.8726
v  -0.3142 0.8535 0.9488
v  -0.1794 0.8662 0.9683
v  0.2804 0.0460 1.0361
v  -0.3647 0.1825 0.9968
v  -0.3605 0.0981 0.9872
v  0.4231 0.9045 -0.8888
v  0.2303 0.9294 -0.9865
v  -0.3273 0.7862 -0.9257
v  -0.3233 0.8660 -0.9291
v  -0.3416 0.0982 -0.9537
v  -0.1966 0.0736 -0.8866
v  0.3556 0.1740 -0.9567
v  0.3472 0.0846 -0.9381
v  0.2323 -0.0021 0.4700
v  0.0001 0.0249 0.4808
v  0.0015 0.1358 0.0009
v  0.2155 0.0873 -0.0021
v  -0.2283 0.9785 0.4647
v  -0.0013 0.9634 0.4791
v  0.0022 1.0210 -0.0012
v  -0.2267 1.0190 -0.0011
v  0.4493 0.8566 0.4681
v  0.4825 0.4994 0.4796
v  0.4991 0.4959 -0.0002
v  0.5246 0.8026 -0.0032
v  -0.5038 0.9403 -0.4795
v  -0.4776 0.5020 -0.4769
v  -0.3898 0.5036 0.0014
v  -0.4967 0.8691 -0.0005
v  0.4475 0.9084 0.4661
v  0.4994 0.9213 -0.0069
v  0.4929 0.0514 -0.4664
v  0.4703 0.1578 -0.0007
v  0.4499 0.1001 -0.0008
v  -0.5029 0.9496 -0.4800
v  -0.4938 0.9458 -0.0007
v  -0.4589 0.0825 0.4737
v  -0.4013 0.1792 0.0151
v  -0.4034 0.1373 0.0204
v  0.4014 0.0147 0.4614
v  0.3477 0.0681 -0.0018
v  -0.3417 0.0312 -0.4258
v  -0.2099 0.1187 0.0113
v  -0.3234 0.1124 0.0190
v  -0.3644 0.9765 0.4532
v  -0.3802 1.0079 -0.0012
v  0.3983 0.9724 -0.4866
v  0.2187 1.0687 -0.0069
v  0.3769 1.0336 -0.0098
# 185 vertices

vn -0.0535 -0.9972 -0.0516
vn -0.0425 -0.9888 0.1428
vn -0.0770 -0.9872 0.1396
vn -0.1210 -0.9907 -0.0620
vn -0.0781 0.9964 -0.0325
vn -0.0126 0.9966 0.0811
vn 0.1410 0.9879 0.0640
vn 0.2768 0.9602 0.0382
vn 0.0201 0.0413 0.9989
vn -0.0210 0.0383 0.9990
vn 0.1648 0.1102 0.9801
vn 0.3050 0.1893 0.9333
vn 0.9962 -0.0100 -0.0862
vn 0.9995 -0.0016 0.0326
vn 0.9888 -0.1398 0.0532
vn 0.9811 -0.1400 -0.1338
vn -0.1292 0.0623 -0.9897
vn -0.1173 -0.0389 -0.9923
vn -0.0832 0.0010 -0.9965
vn -0.2036 -0.0033 -0.9790
vn -0.9993 -0.0363 0.0066
vn -0.9922 -0.0932 -0.0827
vn -0.3364 0.9417 0.0041
vn -0.9960 0.0816 -0.0352
vn -0.0404 -0.9495 -0.3112
vn -0.2125 -0.8011 -0.5595
vn -0.0234 -0.8881 0.4591
vn 0.0211 -0.9984 -0.0518
vn 0.0215 -0.9988 -0.0449
vn 0.0274 -0.9090 0.4158
vn -0.1106 0.8765 -0.4685
vn 0.2194 0.8943 -0.3899
vn -0.0309 0.9284 0.3703
vn -0.0522 0.9967 0.0618
vn -0.0011 0.9961 0.0884
vn -0.0866 0.9151 0.3938
vn 0.8446 -0.0173 -0.5351
vn 0.8175 -0.1387 -0.5590
vn 0.7017 0.1585 0.6946
vn 0.9712 0.1582 0.1783
vn 0.9536 0.2101 0.2156
vn 0.7491 0.2529 0.6123
vn -0.8754 0.0190 0.4830
vn -0.9112 0.0046 0.4119
vn -0.7635 0.0369 -0.6448
vn -0.9855 0.0179 -0.1688
vn -0.9607 0.1278 -0.2465
vn -0.7509 0.1070 -0.6517
vn 0.0061 0.5275 0.8495
vn 0.2898 0.4999 0.8161
vn -0.0233 -0.4799 0.8770
vn -0.0005 -0.0490 0.9988
vn -0.0835 -0.0591 0.9948
vn -0.1514 -0.4793 0.8645
vn 0.9827 0.1704 0.0729
vn 0.9278 0.3730 -0.0043
vn 0.9986 0.0306 0.0431
vn 0.9994 -0.0201 0.0281
vn 0.8422 -0.5257 0.1200
vn 0.7660 -0.6338 -0.1078
vn 0.9935 -0.0703 -0.0901
vn 0.9847 -0.0500 0.1668
vn -0.1196 0.4938 -0.8613
vn -0.1985 0.3691 -0.9080
vn -0.1811 -0.5145 -0.8382
vn -0.1823 -0.0652 -0.9811
vn 0.0888 -0.0956 -0.9914
vn 0.1148 -0.5536 -0.8248
vn -0.6484 0.7215 0.2428
vn -0.6831 0.7254 0.0850
vn -0.9983 0.0589 -0.0042
vn -0.9741 0.1265 0.1872
vn -0.7926 -0.6084 -0.0405
vn -0.8004 -0.5879 0.1173
vn -0.9835 -0.1197 0.1359
vn -0.9820 -0.1707 -0.0805
vn 0.9429 0.2824 -0.1763
vn 0.9402 0.0525 -0.3366
vn 0.7821 -0.6024 -0.1595
vn 0.6959 -0.5216 -0.4937
vn 0.7162 -0.3995 0.5722
vn 0.7384 0.0114 0.6742
vn 0.8676 0.4377 0.2360
vn 0.7105 0.4346 0.5534
vn -0.5921 0.5663 0.5733
vn -0.7890 0.1222 0.6021
vn -0.9610 -0.2761 -0.0133
vn -0.8918 -0.2642 0.3674
vn -0.7489 -0.5499 -0.3699
vn -0.8339 -0.1047 -0.5419
vn -0.8181 0.5134 -0.2590
vn -0.6969 0.4082 -0.5897
vn 0.3251 -0.9395 -0.1075
vn 0.2678 -0.9606 0.0736
vn 0.0069 -0.9936 0.1128
vn 0.0419 -0.9967 -0.0693
vn -0.4875 -0.8725 -0.0335
vn -0.2795 -0.9373 -0.2082
vn -0.0509 -0.9677 -0.2468
vn -0.0770 -0.9942 -0.0753
vn -0.3918 0.8898 -0.2339
vn -0.3366 0.9408 -0.0399
vn 0.0011 1.0000 0.0009
vn -0.1270 0.9789 -0.1603
vn 0.4973 0.8483 0.1819
vn 0.4339 0.8907 0.1358
vn 0.0426 0.9925 0.1147
vn 0.0707 0.9901 0.1216
vn -0.3554 0.1616 0.9206
vn -0.3790 0.0401 0.9245
vn 0.0582 0.0536 0.9969
vn -0.0114 0.1238 0.9922
vn 0.2119 0.0569 0.9756
vn 0.6108 0.1211 -0.7825
vn 0.4537 -0.0048 -0.8912
vn 0.0460 -0.0219 -0.9987
vn 0.1554 0.0977 -0.9830
vn -0.3092 0.0157 -0.9509
vn -0.3492 0.0479 -0.9358
vn -0.0425 -0.2698 -0.9620
vn 0.3317 -0.8601 -0.3876
vn 0.0730 -0.9264 -0.3695
vn -0.3770 -0.9251 -0.0457
vn -0.2992 -0.9059 -0.2995
vn -0.5199 -0.7585 0.3929
vn -0.1257 -0.8936 0.4309
vn 0.3518 -0.9360 0.0098
vn 0.3765 -0.8297 0.4121
vn -0.3777 0.7636 -0.5237
vn -0.1987 0.8248 -0.5293
vn 0.7116 0.6951 0.1026
vn 0.6374 0.7452 -0.1961
vn 0.4445 0.6986 0.5606
vn 0.1257 0.8799 0.4582
vn -0.1916 0.9687 0.1579
vn -0.2721 0.8563 0.4389
vn -0.3057 0.5084 0.8050
vn -0.0718 0.5413 0.8378
vn 0.2100 -0.3399 0.9167
vn -0.5266 -0.0017 0.8501
vn -0.5258 -0.3594 0.7710
vn 0.6250 0.4771 -0.6179
vn 0.1900 0.5294 -0.8268
vn -0.4171 0.0111 -0.9088
vn -0.4105 0.3046 -0.8595
vn -0.2763 -0.4856 -0.8293
vn -0.1622 -0.5367 -0.8280
vn 0.4626 -0.1223 -0.8781
vn 0.4171 -0.5030 -0.7569
vn -0.0141 -0.9834 -0.1808
vn -0.0288 -0.9730 -0.2289
vn -0.0643 -0.9975 0.0282
vn -0.1617 -0.9860 0.0413
vn 0.0146 0.9970 0.0762
vn -0.0599 0.9955 0.0729
vn -0.0984 0.9948 0.0272
vn -0.0274 0.9985 0.0471
vn 0.9917 0.0553 0.1162
vn 0.9965 0.0790 -0.0264
vn 0.9972 -0.0555 0.0497
vn 0.9966 0.0666 0.0490
vn -0.9997 0.0091 0.0216
vn -0.9894 -0.0055 0.1451
vn -0.9950 -0.0988 0.0129
vn -0.9923 -0.1205 -0.0289
vn 0.8708 0.4695 0.1463
vn 0.8651 0.5015 0.0092
vn 0.7763 -0.6275 0.0605
vn 0.9824 -0.1851 0.0244
vn 0.7017 -0.7123 0.0149
vn -0.8528 0.5211 -0.0346
vn -0.8508 0.5255 0.0023
vn 0.8104 -0.5789 -0.0903
vn -0.9980 0.0490 0.0399
vn -0.8205 -0.5713 -0.0211
vn 0.2464 -0.9607 -0.1279
vn 0.0812 -0.9960 0.0361
vn -0.3628 -0.9240 0.1212
vn 0.0529 -0.9986 0.0045
vn -0.1390 -0.9899 -0.0285
vn -0.1147 0.9896 0.0862
vn -0.2693 0.9623 0.0376
vn 0.5778 0.8160 -0.0165
vn 0.0055 0.9999 0.0117
vn 0.4588 0.8885 0.0049
# 185 vertex normals

vt 0.0746 0.1364 0.0000
vt 0.1350 0.1350 0.0000
vt 0.1423 0.1875 0.0000
vt 0.0797 0.1867 0.0000
vt 0.4249 0.4107 0.0000
vt 0.3692 0.4135 0.0000
vt 0.3692 0.3536 0.0000
vt 0.4164 0.3450 0.0000
vt 0.7331 0.3976 0.0000
vt 0.6536 0.3986 0.0000
vt 0.6535 0.3302 0.0000
vt 0.7278 0.3418 0.0000
vt 0.5829 0.1375 0.0000
vt 0.6373 0.1384 0.0000
vt 0.6429 0.2441 0.0000
vt 0.5857 0.2281 0.0000
vt 0.6336 0.5923 0.0000
vt 0.6337 0.6743 0.0000
vt 0.5765 0.6744 0.0000
vt 0.5827 0.5982 0.0000
vt 0.0831 0.6780 0.0000
vt 0.1406 0.6801 0.0000
vt 0.1376 0.7859 0.0000
vt 0.0867 0.7661 0.0000
vt 0.0362 0.1385 0.0000
vt 0.0380 0.1868 0.0000
vt 0.4903 0.1389 0.0000
vt 0.4331 0.1387 0.0000
vt 0.4343 0.0860 0.0000
vt 0.4899 0.0833 0.0000
vt 0.4639 0.4120 0.0000
vt 0.4575 0.3500 0.0000
vt 0.0297 0.4126 0.0000
vt 0.0750 0.4130 0.0000
vt 0.0809 0.4619 0.0000
vt 0.0327 0.4572 0.0000
vt 0.5439 0.1407 0.0000
vt 0.5452 0.2207 0.0000
vt 0.9878 0.1422 0.0000
vt 0.9487 0.1423 0.0000
vt 0.9355 0.0677 0.0000
vt 0.9736 0.0707 0.0000
vt 0.0357 0.6760 0.0000
vt 0.0385 0.7450 0.0000
vt 0.4719 0.6925 0.0000
vt 0.4370 0.6911 0.0000
vt 0.4358 0.5982 0.0000
vt 0.4713 0.6134 0.0000
vt 0.7523 0.3976 0.0000
vt 0.7502 0.3456 0.0000
vt 0.5399 0.3996 0.0000
vt 0.5407 0.3995 0.0000
vt 0.5595 0.4515 0.0000
vt 0.5464 0.4505 0.0000
vt 0.6005 0.0667 0.0000
vt 0.6406 0.0541 0.0000
vt 0.6412 0.0738 0.0000
vt 0.5961 0.0830 0.0000
vt 0.9455 0.2523 0.0000
vt 0.8725 0.2527 0.0000
vt 0.8728 0.2417 0.0000
vt 0.9462 0.2402 0.0000
vt 0.6340 0.5707 0.0000
vt 0.5848 0.5800 0.0000
vt 0.6312 0.7826 0.0000
vt 0.6322 0.7768 0.0000
vt 0.6847 0.7628 0.0000
vt 0.6831 0.7800 0.0000
vt 0.0925 0.5749 0.0000
vt 0.1517 0.5681 0.0000
vt 0.1507 0.5826 0.0000
vt 0.0887 0.5957 0.0000
vt 0.4210 0.7868 0.0000
vt 0.3589 0.7851 0.0000
vt 0.3623 0.7647 0.0000
vt 0.4249 0.7667 0.0000
vt 0.5716 0.0559 0.0000
vt 0.5622 0.0774 0.0000
vt 0.5870 0.2498 0.0000
vt 0.5475 0.2449 0.0000
vt 0.9900 0.2525 0.0000
vt 0.9899 0.2440 0.0000
vt 0.9323 0.0516 0.0000
vt 0.9706 0.0507 0.0000
vt 0.0449 0.5863 0.0000
vt 0.0409 0.6098 0.0000
vt 0.0888 0.7761 0.0000
vt 0.0393 0.7681 0.0000
vt 0.4649 0.7896 0.0000
vt 0.4683 0.7719 0.0000
vt 0.4339 0.5886 0.0000
vt 0.4694 0.5978 0.0000
vt 0.0808 0.0449 0.0000
vt 0.1370 0.0432 0.0000
vt 0.1356 0.0799 0.0000
vt 0.0777 0.0842 0.0000
vt 0.4216 0.2335 0.0000
vt 0.3700 0.2302 0.0000
vt 0.3709 0.1963 0.0000
vt 0.4272 0.1927 0.0000
vt 0.4199 0.5072 0.0000
vt 0.3686 0.5107 0.0000
vt 0.3691 0.4721 0.0000
vt 0.4232 0.4677 0.0000
vt 0.0758 0.3293 0.0000
vt 0.1341 0.3231 0.0000
vt 0.1328 0.3580 0.0000
vt 0.0743 0.3658 0.0000
vt 0.7217 0.4812 0.0000
vt 0.6538 0.4892 0.0000
vt 0.6537 0.4537 0.0000
vt 0.7270 0.4461 0.0000
vt 0.5519 0.2899 0.0000
vt 0.6537 0.2910 0.0000
vt 0.5462 0.3303 0.0000
vt 0.7343 0.6016 0.0000
vt 0.7246 0.6749 0.0000
vt 0.6902 0.6749 0.0000
vt 0.6892 0.5964 0.0000
vt 0.5492 0.7578 0.0000
vt 0.5474 0.6744 0.0000
vt 0.5851 0.7621 0.0000
vt 0.0409 0.0516 0.0000
vt 0.0369 0.0881 0.0000
vt 0.0851 0.2252 0.0000
vt 0.0431 0.2218 0.0000
vt 0.4757 0.2280 0.0000
vt 0.4834 0.1894 0.0000
vt 0.4364 0.0401 0.0000
vt 0.4858 0.0503 0.0000
vt 0.4559 0.4990 0.0000
vt 0.4615 0.4637 0.0000
vt 0.4103 0.3040 0.0000
vt 0.4415 0.3052 0.0000
vt 0.0381 0.3387 0.0000
vt 0.0307 0.3676 0.0000
vt 0.0830 0.5004 0.0000
vt 0.0337 0.4920 0.0000
vt 0.7414 0.4770 0.0000
vt 0.7445 0.4437 0.0000
vt 0.7252 0.3075 0.0000
vt 0.7452 0.3117 0.0000
vt 0.5434 0.2902 0.0000
vt 0.5418 0.3300 0.0000
vt 0.5755 0.4895 0.0000
vt 0.5547 0.4884 0.0000
vt 0.7379 0.5743 0.0000
vt 0.6903 0.5681 0.0000
vt 0.5524 0.6035 0.0000
vt 0.5534 0.5838 0.0000
vt 0.5489 0.7736 0.0000
vt 0.5848 0.7797 0.0000
vt 0.7212 0.7548 0.0000
vt 0.7192 0.7769 0.0000
vt 0.3686 0.0813 0.0000
vt 0.3713 0.1387 0.0000
vt 0.2527 0.1383 0.0000
vt 0.2519 0.0854 0.0000
vt 0.1345 0.4698 0.0000
vt 0.1309 0.4137 0.0000
vt 0.2496 0.4128 0.0000
vt 0.2496 0.4694 0.0000
vt 0.8743 0.0537 0.0000
vt 0.8771 0.1420 0.0000
vt 0.7585 0.1429 0.0000
vt 0.7578 0.0671 0.0000
vt 0.3820 0.5804 0.0000
vt 0.3771 0.6886 0.0000
vt 0.2589 0.6835 0.0000
vt 0.2629 0.5933 0.0000
vt 0.8738 0.0409 0.0000
vt 0.7569 0.0377 0.0000
vt 0.6433 0.2528 0.0000
vt 0.7584 0.2264 0.0000
vt 0.7584 0.2407 0.0000
vt 0.3822 0.5781 0.0000
vt 0.2638 0.5744 0.0000
vt 0.1382 0.7830 0.0000
vt 0.2524 0.7635 0.0000
vt 0.2507 0.7738 0.0000
vt 0.3665 0.0395 0.0000
vt 0.2520 0.0527 0.0000
vt 0.1472 0.2231 0.0000
vt 0.2552 0.1906 0.0000
vt 0.2571 0.2186 0.0000
vt 0.1373 0.5034 0.0000
vt 0.2496 0.5073 0.0000
vt 0.3696 0.3149 0.0000
vt 0.2510 0.3593 0.0000
vt 0.2517 0.3202 0.0000
vt 0.0314 0.7963 0.0000
vt 0.0116 0.7741 0.0000
vt 0.0428 0.2461 0.0000
vt 0.0167 0.2231 0.0000
vt 0.0206 0.0529 0.0000
vt 0.0413 0.0292 0.0000
vt 0.0398 0.3206 0.0000
vt 0.0100 0.3204 0.0000
vt 0.0227 0.2989 0.0000
vt 0.8110 0.6021 0.0000
vt 0.8052 0.5708 0.0000
vt 0.8350 0.5902 0.0000
vt 0.5389 0.0419 0.0000
vt 0.5665 0.0259 0.0000
vt 0.0852 0.8049 0.0000
vt 0.0333 0.1873 0.0000
vt 0.0809 0.0160 0.0000
vt 0.0335 0.8626 0.0000
vt 0.0100 0.8531 0.0000
vt 0.0537 0.8369 0.0000
vt 0.0667 0.8628 0.0000
vt 0.0148 0.4910 0.0000
vt 0.0100 0.4577 0.0000
vt 0.5715 0.8215 0.0000
vt 0.5627 0.8390 0.0000
vt 0.5222 0.8299 0.0000
vt 0.5356 0.8061 0.0000
vt 0.8379 0.2899 0.0000
vt 0.8338 0.3215 0.0000
vt 0.7828 0.3385 0.0000
vt 0.7866 0.2921 0.0000
vt 0.4559 0.5200 0.0000
vt 0.4200 0.5362 0.0000
vt 0.7437 0.5018 0.0000
vt 0.7201 0.5098 0.0000
vt 0.7428 0.7773 0.0000
vt 0.7493 0.7531 0.0000
vt 0.4909 0.7929 0.0000
vt 0.4917 0.7771 0.0000
vt 0.4192 0.2594 0.0000
vt 0.3695 0.2521 0.0000
vt 0.0868 0.2574 0.0000
vt 0.1372 0.0168 0.0000
vt 0.4394 0.0100 0.0000
vt 0.4839 0.0296 0.0000
vt 0.0756 0.3096 0.0000
vt 0.1341 0.3027 0.0000
vt 0.5976 0.0290 0.0000
vt 0.3680 0.5376 0.0000
vt 0.0785 0.5332 0.0000
vt 0.0313 0.5158 0.0000
vt 0.6537 0.5109 0.0000
vt 0.0100 0.7532 0.0000
vt 0.7510 0.6731 0.0000
vt 0.5272 0.0692 0.0000
vt 0.5222 0.7534 0.0000
vt 0.5247 0.6740 0.0000
vt 0.5252 0.5949 0.0000
vt 0.5267 0.5794 0.0000
vt 0.0126 0.1409 0.0000
vt 0.0100 0.0890 0.0000
vt 0.5237 0.3439 0.0000
vt 0.5286 0.3996 0.0000
vt 0.1658 0.8675 0.0000
vt 0.1662 0.8354 0.0000
vt 0.1981 0.8363 0.0000
vt 0.1984 0.8660 0.0000
vt 0.0127 0.4116 0.0000
vt 0.5935 0.8054 0.0000
vt 0.5996 0.8284 0.0000
vt 0.4931 0.3564 0.0000
vt 0.4908 0.4127 0.0000
vt 0.7757 0.6025 0.0000
vt 0.7739 0.5681 0.0000
vt 0.2575 0.2384 0.0000
vt 0.1489 0.2507 0.0000
vt 0.2522 0.0275 0.0000
vt 0.3664 0.0174 0.0000
vt 0.7562 0.0100 0.0000
vt 0.6383 0.0251 0.0000
vt 0.2495 0.5354 0.0000
vt 0.1373 0.5359 0.0000
vt 0.5236 0.4500 0.0000
vt 0.0150 0.3596 0.0000
vt 0.4861 0.4619 0.0000
vt 0.0187 0.6753 0.0000
vt 0.5208 0.1425 0.0000
vt 0.2510 0.2899 0.0000
# 278 texture coords

g junk__1_
f 1/1/1 2/2/2 3/3/3 4/4/4 
f 5/5/5 6/6/6 7/7/7 8/8/8 
f 9/9/9 10/10/10 11/11/11 12/12/12 
f 13/13/13 14/14/14 15/15/15 16/16/16 
f 17/17/17 18/18/18 19/19/19 20/20/20 
f 21/21/21 22/22/22 23/23/23 24/24/24 
f 25/25/25 1/1/1 4/4/4 26/26/26 
f 27/27/27 28/28/28 29/29/29 30/30/30 
f 31/31/31 5/5/5 8/8/8 32/32/32 
f 33/33/33 34/34/34 35/35/35 36/36/36 
f 37/37/37 13/13/13 16/16/16 38/38/38 
f 39/39/39 40/40/40 41/41/41 42/42/42 
f 43/43/43 21/21/21 24/24/24 44/44/44 
f 45/45/45 46/46/46 47/47/47 48/48/48 
f 49/49/49 9/9/9 12/12/12 50/50/50 
f 51/51/51 52/52/52 53/53/53 54/54/54 
f 55/55/55 56/56/56 57/57/57 58/58/58 
f 59/59/59 60/60/60 61/61/61 62/62/62 
f 63/63/63 17/17/17 20/20/20 64/64/64 
f 65/65/65 66/66/66 67/67/67 68/68/68 
f 69/69/69 70/70/70 71/71/71 72/72/72 
f 73/73/73 74/74/74 75/75/75 76/76/76 
f 77/77/77 55/55/55 58/58/58 78/78/78 
f 79/79/79 80/80/80 38/38/38 16/16/16 
f 81/81/81 59/59/59 62/62/62 82/82/82 
f 83/83/83 84/84/84 42/42/42 41/41/41 
f 85/85/85 69/69/69 72/72/72 86/86/86 
f 87/87/87 88/88/88 44/44/44 24/24/24 
f 89/89/89 73/73/73 76/76/76 90/90/90 
f 91/91/91 92/92/92 48/48/48 47/47/47 
f 93/93/93 94/94/94 95/95/95 96/96/96 
f 97/97/97 98/98/98 99/99/99 100/100/100 
f 101/101/101 102/102/102 103/103/103 104/104/104 
f 105/105/105 106/106/106 107/107/107 108/108/108 
f 109/109/109 110/110/110 111/111/111 112/112/112 
f 82/113/82 39/114/39 11/11/11 113/115/113 
f 114/116/114 115/117/115 116/118/116 117/119/117 
f 118/120/118 119/121/119 19/19/19 120/122/120 
f 121/123/121 93/93/93 96/96/96 122/124/122 
f 123/125/123 124/126/124 26/26/26 4/4/4 
f 125/127/125 97/97/97 100/100/100 126/128/126 
f 127/129/127 128/130/128 30/30/30 29/29/29 
f 129/131/129 101/101/101 104/104/104 130/132/130 
f 131/133/131 132/134/132 32/32/32 8/8/8 
f 133/135/133 105/105/105 108/108/108 134/136/134 
f 135/137/135 136/138/136 36/36/36 35/35/35 
f 137/139/137 109/109/109 112/112/112 138/140/138 
f 42/141/42 84/142/84 50/50/50 12/12/12 
f 81/143/81 82/113/82 113/115/113 139/144/139 
f 140/145/140 141/146/141 54/54/54 53/53/53 
f 142/147/142 114/116/114 117/119/117 143/148/143 
f 144/149/144 145/150/145 64/64/64 20/20/20 
f 146/151/146 118/120/118 120/122/120 147/152/147 
f 148/153/148 149/154/149 68/68/68 67/67/67 
f 150/155/150 151/156/151 152/157/152 153/158/153 
f 154/159/154 155/160/155 156/161/156 157/162/157 
f 158/163/158 159/164/159 160/165/160 161/166/161 
f 162/167/162 163/168/163 164/169/164 165/170/165 
f 166/171/166 158/163/158 161/166/161 167/172/167 
f 168/173/168 15/15/15 169/174/169 170/175/170 
f 171/176/171 162/167/162 165/170/165 172/177/172 
f 173/178/173 23/23/23 174/179/174 175/180/175 
f 176/181/176 150/155/150 153/158/153 177/182/177 
f 178/183/178 3/3/3 179/184/179 180/185/180 
f 181/186/181 154/159/154 157/162/157 182/187/182 
f 183/188/183 7/7/7 184/189/184 185/190/185 
f 96/96/96 95/95/95 2/2/2 1/1/1 
f 104/104/104 103/103/103 6/6/6 5/5/5 
f 112/112/112 111/111/111 10/10/10 9/9/9 
f 117/119/117 116/118/116 18/18/18 17/17/17 
f 122/124/122 96/96/96 1/1/1 25/25/25 
f 126/128/126 100/100/100 28/28/28 27/27/27 
f 130/132/130 104/104/104 5/5/5 31/31/31 
f 134/136/134 108/108/108 34/34/34 33/33/33 
f 138/140/138 112/112/112 9/9/9 49/49/49 
f 139/144/139 113/115/113 52/52/52 51/51/51 
f 143/148/143 117/119/117 17/17/17 63/63/63 
f 147/152/147 120/122/120 66/66/66 65/65/65 
f 100/100/100 99/99/99 151/156/151 28/28/28 
f 108/108/108 107/107/107 155/160/155 34/34/34 
f 52/52/52 113/115/113 11/11/11 10/10/10 
f 58/58/58 57/57/57 14/14/14 13/13/13 
f 66/66/66 120/122/120 19/19/19 18/18/18 
f 72/72/72 71/71/71 22/22/22 21/21/21 
f 78/78/78 58/58/58 13/13/13 37/37/37 
f 82/82/82 62/62/62 40/40/40 39/39/39 
f 86/86/86 72/72/72 21/21/21 43/43/43 
f 90/90/90 76/76/76 46/46/46 45/45/45 
f 140/145/140 53/53/53 111/111/111 110/110/110 
f 42/141/42 12/12/12 11/11/11 39/114/39 
f 148/153/148 67/67/67 116/118/116 115/117/115 
f 144/149/144 20/20/20 19/19/19 119/121/119 
f 62/62/62 61/61/61 159/164/159 40/40/40 
f 76/76/76 75/75/75 163/168/163 46/46/46 
f 53/53/53 52/52/52 10/10/10 111/111/111 
f 67/67/67 66/66/66 18/18/18 116/118/116 
f 164/169/164 174/179/174 23/23/23 22/22/22 
f 170/175/170 169/174/169 61/61/61 60/60/60 
f 172/177/172 165/170/165 71/71/71 70/70/70 
f 180/185/180 179/184/179 99/99/99 98/98/98 
f 185/190/185 184/189/184 107/107/107 106/106/106 
f 29/29/29 28/28/28 151/156/151 150/155/150 
f 35/35/35 34/34/34 155/160/155 154/159/154 
f 41/41/41 40/40/40 159/164/159 158/163/158 
f 83/83/83 41/41/41 158/163/158 166/171/166 
f 87/87/87 24/24/24 23/23/23 173/178/173 
f 127/129/127 29/29/29 150/155/150 176/181/176 
f 135/137/135 35/35/35 154/159/154 181/186/181 
f 179/184/179 152/157/152 151/156/151 99/99/99 
f 184/189/184 156/161/156 155/160/155 107/107/107 
f 165/170/165 164/169/164 22/22/22 71/71/71 
f 169/174/169 160/165/160 159/164/159 61/61/61 
f 152/157/152 179/184/179 3/3/3 2/2/2 
f 156/161/156 184/189/184 7/7/7 6/6/6 
f 160/165/160 169/174/169 15/15/15 14/14/14 
f 167/172/167 161/166/161 57/57/57 56/56/56 
f 175/180/175 174/179/174 75/75/75 74/74/74 
f 177/182/177 153/158/153 95/95/95 94/94/94 
f 182/187/182 157/162/157 103/103/103 102/102/102 
f 47/47/47 46/46/46 163/168/163 162/167/162 
f 79/79/79 16/16/16 15/15/15 168/173/168 
f 91/91/91 47/47/47 162/167/162 171/176/171 
f 123/125/123 4/4/4 3/3/3 178/183/178 
f 131/133/131 8/8/8 7/7/7 183/188/183 
f 153/158/153 152/157/152 2/2/2 95/95/95 
f 157/162/157 156/161/156 6/6/6 103/103/103 
f 161/166/161 160/165/160 14/14/14 57/57/57 
f 174/179/174 164/169/164 163/168/163 75/75/75 
f 125/191/125 141/192/141 88/88/88 
f 89/193/89 146/194/146 124/126/124 
f 121/123/121 149/195/149 80/196/80 
f 85/197/85 137/198/137 136/199/136 
f 129/200/129 145/201/145 92/202/92 
f 77/77/77 142/203/142 132/204/132 
f 125/191/125 88/88/88 87/87/87 97/205/97 
f 124/126/124 146/194/146 147/206/147 26/26/26 
f 121/123/121 80/196/80 79/207/79 93/93/93 
f 128/208/128 81/209/81 139/210/139 30/211/30 
f 136/138/136 137/212/137 138/213/138 36/36/36 
f 133/214/133 84/215/84 83/216/83 105/217/105 
f 132/218/132 142/219/142 143/220/143 32/221/32 
f 129/131/129 92/222/92 91/223/91 101/101/101 
f 137/139/137 85/224/85 86/225/86 109/109/109 
f 80/226/80 149/154/149 148/153/148 38/227/38 
f 146/228/146 89/89/89 90/90/90 118/229/118 
f 97/97/97 87/230/87 173/231/173 98/98/98 
f 123/125/123 73/232/73 89/193/89 124/126/124 
f 93/93/93 79/207/79 168/233/168 94/94/94 
f 127/129/127 59/234/59 81/235/81 128/130/128 
f 105/105/105 83/236/83 166/237/166 106/106/106 
f 131/238/131 55/55/55 77/77/77 132/204/132 
f 101/101/101 91/223/91 171/239/171 102/102/102 
f 135/137/135 69/240/69 85/241/85 136/138/136 
f 109/109/109 86/225/86 43/242/43 110/110/110 
f 140/243/140 44/44/44 88/88/88 141/192/141 
f 38/227/38 148/153/148 115/117/115 37/244/37 
f 78/78/78 114/245/114 142/203/142 77/77/77 
f 118/120/118 90/246/90 45/247/45 119/121/119 
f 144/149/144 48/248/48 92/249/92 145/150/145 
f 26/26/26 147/206/147 65/250/65 25/25/25 
f 122/124/122 68/251/68 149/195/149 121/123/121 
f 30/252/30 139/144/139 51/51/51 27/253/27 
f 126/254/126 54/255/54 141/256/141 125/257/125 
f 36/36/36 138/213/138 49/258/49 33/33/33 
f 134/259/134 50/260/50 84/215/84 133/214/133 
f 32/32/32 143/261/143 63/262/63 31/31/31 
f 130/263/130 64/264/64 145/201/145 129/200/129 
f 180/185/180 175/265/175 74/266/74 178/183/178 
f 177/182/177 170/267/170 60/268/60 176/181/176 
f 185/269/185 167/172/167 56/56/56 183/270/183 
f 182/187/182 172/271/172 70/272/70 181/186/181 
f 25/25/25 65/250/65 68/251/68 122/124/122 
f 27/253/27 51/51/51 54/54/54 126/273/126 
f 33/33/33 49/258/49 50/274/50 134/136/134 
f 31/31/31 63/262/63 64/275/64 130/132/130 
f 110/276/110 43/43/43 44/44/44 140/243/140 
f 37/37/37 115/277/115 114/245/114 78/78/78 
f 119/121/119 45/247/45 48/248/48 144/149/144 
f 98/98/98 173/231/173 175/265/175 180/185/180 
f 106/106/106 166/237/166 167/278/167 185/190/185 
f 176/181/176 60/268/60 59/234/59 127/129/127 
f 181/186/181 70/272/70 69/240/69 135/137/135 
f 94/94/94 168/233/168 170/267/170 177/182/177 
f 102/102/102 171/239/171 172/271/172 182/187/182 
f 178/183/178 74/266/74 73/232/73 123/125/123 
f 183/270/183 56/56/56 55/55/55 131/238/131 
# 180 polygons - 6 triangles

