# 3ds Max Wavefront OBJ Exporter v0.97b - (c)2007 guruware
# File Created: 25.10.2016 15:21:53

#
# object beam
#

v  0.0333 0.0000 -1.5000
v  0.0333 0.0000 1.5000
v  -0.0333 0.0000 1.5000
v  -0.0333 0.0000 -1.5000
v  0.0333 0.2584 1.5000
v  0.0333 0.2584 -1.5000
v  -0.0333 0.2584 -1.5000
v  -0.0333 0.2584 1.5000
v  0.0200 0.2352 1.5000
v  0.0283 0.2402 1.5000
v  -0.0283 0.2402 1.5000
v  -0.0200 0.2352 1.5000
v  -0.0200 0.0232 1.5000
v  -0.0283 0.0182 1.5000
v  0.0283 0.0182 1.5000
v  0.0200 0.0232 1.5000
v  -0.0200 0.2352 -1.5000
v  -0.0283 0.2402 -1.5000
v  0.0283 0.2402 -1.5000
v  0.0200 0.2352 -1.5000
v  0.0200 0.0232 -1.5000
v  0.0283 0.0182 -1.5000
v  -0.0283 0.0182 -1.5000
v  -0.0200 0.0232 -1.5000
v  -0.0333 0.2452 1.5000
v  0.0333 0.2452 1.5000
v  0.0333 0.0132 1.5000
v  -0.0333 0.0132 1.5000
v  0.1000 0.2584 -1.5000
v  0.1000 0.2584 1.5000
v  0.1000 0.2452 1.5000
v  0.1000 0.2452 -1.5000
v  0.1000 0.0000 1.5000
v  0.1000 0.0000 -1.5000
v  0.1000 0.0132 -1.5000
v  0.1000 0.0132 1.5000
v  0.0333 0.2452 -1.5000
v  -0.0333 0.2452 -1.5000
v  -0.0333 0.0132 -1.5000
v  0.0333 0.0132 -1.5000
v  -0.1000 0.2584 1.5000
v  -0.1000 0.2584 -1.5000
v  -0.1000 0.2452 -1.5000
v  -0.1000 0.2452 1.5000
v  -0.1000 0.0000 -1.5000
v  -0.1000 0.0000 1.5000
v  -0.1000 0.0132 1.5000
v  -0.1000 0.0132 -1.5000
v  -0.0950 0.2402 1.5000
v  -0.0383 0.2402 1.5000
v  0.0383 0.2402 1.5000
v  0.0950 0.2402 1.5000
v  0.0950 0.0182 1.5000
v  0.0383 0.0182 1.5000
v  -0.0383 0.0182 1.5000
v  -0.0950 0.0182 1.5000
v  0.0950 0.2402 -1.5000
v  0.0383 0.2402 -1.5000
v  -0.0383 0.2402 -1.5000
v  -0.0950 0.2402 -1.5000
v  -0.0950 0.0182 -1.5000
v  -0.0383 0.0182 -1.5000
v  0.0383 0.0182 -1.5000
v  0.0950 0.0182 -1.5000
# 64 vertices

vn 0.0000 -1.0000 -0.0000
vn 0.0000 1.0000 -0.0000
vn 0.0000 0.0000 1.0000
vn 0.0000 0.0000 -1.0000
vn 1.0000 0.0000 -0.0000
vn -1.0000 0.0000 -0.0000
vn 1.0000 0.0000 0.0000
vn 1.0000 -0.0000 -0.0000
vn -1.0000 -0.0000 0.0000
vn 0.2631 0.9648 -0.0000
vn -0.2631 0.9648 -0.0000
vn -0.2631 -0.9648 0.0000
vn 0.2631 -0.9648 -0.0000
vn 0.7071 -0.7071 -0.0000
vn 0.7071 0.7071 -0.0000
vn -0.7071 -0.7071 -0.0000
vn -0.7071 0.7071 -0.0000
# 17 vertex normals

vt 0.9814 0.2653 0.0000
vt 0.0020 0.2653 0.0000
vt 0.0020 0.2871 0.0000
vt 0.9814 0.2871 0.0000
vt 0.0020 0.1874 0.0000
vt 0.9814 0.1874 0.0000
vt 0.9814 0.2092 0.0000
vt 0.0020 0.2092 0.0000
vt 0.0412 0.7195 0.0000
vt 0.0439 0.7211 0.0000
vt 0.0254 0.7211 0.0000
vt 0.0281 0.7195 0.0000
vt 0.0281 0.6502 0.0000
vt 0.0254 0.6486 0.0000
vt 0.0439 0.6486 0.0000
vt 0.0412 0.6502 0.0000
vt 0.0281 0.6225 0.0000
vt 0.0254 0.6241 0.0000
vt 0.0439 0.6241 0.0000
vt 0.0412 0.6225 0.0000
vt 0.0412 0.5533 0.0000
vt 0.0439 0.5517 0.0000
vt 0.0254 0.5517 0.0000
vt 0.0281 0.5533 0.0000
vt 0.0238 0.7270 0.0000
vt 0.0238 0.7227 0.0000
vt 0.0455 0.7227 0.0000
vt 0.0455 0.7270 0.0000
vt 0.0455 0.6427 0.0000
vt 0.0455 0.6470 0.0000
vt 0.0238 0.6470 0.0000
vt 0.0238 0.6427 0.0000
vt 0.0020 0.4950 0.0000
vt 0.9814 0.4950 0.0000
vt 0.9814 0.4993 0.0000
vt 0.0020 0.4993 0.0000
vt 0.9814 0.5331 0.0000
vt 0.0020 0.5331 0.0000
vt 0.0020 0.5288 0.0000
vt 0.9814 0.5288 0.0000
vt 0.0455 0.6301 0.0000
vt 0.0455 0.6258 0.0000
vt 0.0238 0.6258 0.0000
vt 0.0238 0.6301 0.0000
vt 0.0238 0.5457 0.0000
vt 0.0238 0.5500 0.0000
vt 0.0455 0.5500 0.0000
vt 0.0455 0.5457 0.0000
vt 0.0020 0.4781 0.0000
vt 0.9814 0.4781 0.0000
vt 0.9814 0.4824 0.0000
vt 0.0020 0.4824 0.0000
vt 0.9814 0.5162 0.0000
vt 0.0020 0.5162 0.0000
vt 0.0020 0.5119 0.0000
vt 0.9814 0.5119 0.0000
vt 0.9814 0.2435 0.0000
vt 0.0020 0.2435 0.0000
vt 0.0020 0.3088 0.0000
vt 0.9814 0.3088 0.0000
vt 0.0020 0.1656 0.0000
vt 0.9814 0.1656 0.0000
vt 0.9814 0.2309 0.0000
vt 0.0020 0.2309 0.0000
vt 0.0020 0.7270 0.0000
vt 0.0020 0.7227 0.0000
vt 0.0036 0.7211 0.0000
vt 0.0221 0.7211 0.0000
vt 0.0472 0.7211 0.0000
vt 0.0657 0.7211 0.0000
vt 0.0673 0.7227 0.0000
vt 0.0673 0.7270 0.0000
vt 0.0673 0.6427 0.0000
vt 0.0673 0.6470 0.0000
vt 0.0657 0.6486 0.0000
vt 0.0472 0.6486 0.0000
vt 0.0221 0.6486 0.0000
vt 0.0036 0.6486 0.0000
vt 0.0020 0.6470 0.0000
vt 0.0020 0.6427 0.0000
vt 0.0673 0.6301 0.0000
vt 0.0673 0.6258 0.0000
vt 0.0657 0.6241 0.0000
vt 0.0472 0.6241 0.0000
vt 0.0221 0.6241 0.0000
vt 0.0036 0.6241 0.0000
vt 0.0020 0.6258 0.0000
vt 0.0020 0.6301 0.0000
vt 0.0020 0.5457 0.0000
vt 0.0020 0.5500 0.0000
vt 0.0036 0.5517 0.0000
vt 0.0221 0.5517 0.0000
vt 0.0472 0.5517 0.0000
vt 0.0657 0.5517 0.0000
vt 0.0673 0.5500 0.0000
vt 0.0673 0.5457 0.0000
vt 0.0020 0.3623 0.0000
vt 0.9980 0.3623 0.0000
vt 0.9980 0.3811 0.0000
vt 0.0020 0.3811 0.0000
vt 0.9980 0.4638 0.0000
vt 0.0020 0.4638 0.0000
vt 0.0020 0.4450 0.0000
vt 0.9980 0.4450 0.0000
vt 0.9980 0.4247 0.0000
vt 0.0020 0.4247 0.0000
vt 0.0020 0.4058 0.0000
vt 0.9980 0.4058 0.0000
vt 0.0020 0.3231 0.0000
vt 0.9980 0.3231 0.0000
vt 0.9980 0.3419 0.0000
vt 0.0020 0.3419 0.0000
vt 0.0020 0.1530 0.0000
vt 0.9814 0.1530 0.0000
vt 0.9814 0.0838 0.0000
vt 0.0020 0.0838 0.0000
vt 0.0020 0.0020 0.0000
vt 0.9814 0.0020 0.0000
vt 0.9814 0.0712 0.0000
vt 0.0020 0.0712 0.0000
vt 0.9980 0.3872 0.0000
vt 0.0020 0.3872 0.0000
vt 0.0020 0.4389 0.0000
vt 0.9980 0.4389 0.0000
vt 0.0020 0.3998 0.0000
vt 0.9980 0.3998 0.0000
vt 0.9980 0.3480 0.0000
vt 0.0020 0.3480 0.0000
vt 0.9980 0.3214 0.0000
vt 0.0020 0.3214 0.0000
vt 0.9980 0.3606 0.0000
vt 0.0020 0.3606 0.0000
vt 0.0020 0.4263 0.0000
vt 0.9980 0.4263 0.0000
vt 0.0020 0.4655 0.0000
vt 0.9980 0.4655 0.0000
# 136 texture coords

g beam
s 1
f 1/1/1 2/2/1 3/3/1 4/4/1 
f 5/5/2 6/6/2 7/7/2 8/8/2 
s 2
f 9/9/3 10/10/3 11/11/3 12/12/3 
f 13/13/3 14/14/3 15/15/3 16/16/3 
f 12/12/3 13/13/3 16/16/3 9/9/3 
f 17/17/4 18/18/4 19/19/4 20/20/4 
f 21/21/4 22/22/4 23/23/4 24/24/4 
f 20/20/4 21/21/4 24/24/4 17/17/4 
f 8/25/3 25/26/3 11/11/3 26/27/3 
f 11/11/3 10/10/3 26/27/3 
f 5/28/3 8/25/3 26/27/3 
f 2/29/3 27/30/3 15/15/3 28/31/3 
f 15/15/3 14/14/3 28/31/3 
f 3/32/3 2/29/3 28/31/3 
s 4
f 29/33/5 30/34/5 31/35/5 32/36/5 
f 33/37/5 34/38/5 35/39/5 36/40/5 
s 2
f 6/41/4 37/42/4 19/19/4 38/43/4 
f 19/19/4 18/18/4 38/43/4 
f 7/44/4 6/41/4 38/43/4 
f 4/45/4 39/46/4 23/23/4 40/47/4 
f 23/23/4 22/22/4 40/47/4 
f 1/48/4 4/45/4 40/47/4 
s 4
f 41/49/6 42/50/6 43/51/6 44/52/6 
f 45/53/6 46/54/6 47/55/6 48/56/6 
s 1
f 34/57/1 33/58/1 2/2/1 1/1/1 
f 46/59/1 45/60/1 4/4/1 3/3/1 
f 30/61/2 29/62/2 6/6/2 5/5/2 
f 42/63/2 41/64/2 8/8/2 7/7/2 
s 2
f 41/65/3 44/66/3 49/67/3 25/26/3 
f 49/67/3 50/68/3 25/26/3 
f 8/25/3 41/65/3 25/26/3 
f 51/69/3 52/70/3 31/71/3 5/28/3 
f 31/71/3 30/72/3 5/28/3 
f 26/27/3 51/69/3 5/28/3 
f 33/73/3 36/74/3 53/75/3 27/30/3 
f 53/75/3 54/76/3 27/30/3 
f 2/29/3 33/73/3 27/30/3 
f 55/77/3 56/78/3 47/79/3 3/32/3 
f 47/79/3 46/80/3 3/32/3 
f 28/31/3 55/77/3 3/32/3 
f 29/81/4 32/82/4 57/83/4 37/42/4 
f 57/83/4 58/84/4 37/42/4 
f 6/41/4 29/81/4 37/42/4 
f 59/85/4 60/86/4 43/87/4 7/44/4 
f 43/87/4 42/88/4 7/44/4 
f 38/43/4 59/85/4 7/44/4 
f 45/89/4 48/90/4 61/91/4 39/46/4 
f 61/91/4 62/92/4 39/46/4 
f 4/45/4 45/89/4 39/46/4 
f 63/93/4 64/94/4 35/95/4 1/48/4 
f 35/95/4 34/96/4 1/48/4 
f 40/47/4 63/93/4 1/48/4 
s 1
f 53/97/2 64/98/2 63/99/2 54/100/2 
f 61/101/2 56/102/2 55/103/2 62/104/2 
f 49/105/1 60/106/1 59/107/1 50/108/1 
f 57/109/1 52/110/1 51/111/1 58/112/1 
f 20/113/7 9/114/8 16/115/8 21/116/7 
f 24/117/9 13/118/6 12/119/6 17/120/9 
s 2
f 51/69/3 26/27/3 10/10/3 9/9/3 
f 50/68/3 12/12/3 11/11/3 25/26/3 
f 55/77/3 28/31/3 14/14/3 13/13/3 
f 54/76/3 16/16/3 15/15/3 27/30/3 
f 59/85/4 38/43/4 18/18/4 17/17/4 
f 58/84/4 20/20/4 19/19/4 37/42/4 
f 63/93/4 40/47/4 22/22/4 21/21/4 
f 62/92/4 24/24/4 23/23/4 39/46/4 
s 4
f 63/99/10 21/121/10 16/122/10 54/100/10 
f 55/103/11 13/123/11 24/124/11 62/104/11 
f 59/107/12 17/125/12 12/126/12 50/108/12 
f 51/111/13 9/127/13 20/128/13 58/112/13 
s 8
f 31/129/14 52/110/14 57/109/14 32/130/14 
f 35/131/15 64/98/15 53/97/15 36/132/15 
f 43/133/16 60/106/16 49/105/16 44/134/16 
f 47/135/17 56/102/17 61/101/17 48/136/17 
# 50 polygons - 24 triangles

